<svg width="25" height="24" viewBox="0 0 25 24" fill="none" xmlns="http://www.w3.org/2000/svg">
<path d="M22.5 4.5H15.75C15.1678 4.5 14.5937 4.63554 14.0729 4.8959C13.5522 5.15625 13.0993 5.53426 12.75 6C12.4007 5.53426 11.9478 5.15625 11.4271 4.8959C10.9063 4.63554 10.3322 4.5 9.75 4.5H3C2.80109 4.5 2.61032 4.57902 2.46967 4.71967C2.32902 4.86032 2.25 5.05109 2.25 5.25V18.75C2.25 18.9489 2.32902 19.1397 2.46967 19.2803C2.61032 19.421 2.80109 19.5 3 19.5H9.75C10.3467 19.5 10.919 19.7371 11.341 20.159C11.7629 20.581 12 21.1533 12 21.75C12 21.9489 12.079 22.1397 12.2197 22.2803C12.3603 22.421 12.5511 22.5 12.75 22.5C12.9489 22.5 13.1397 22.421 13.2803 22.2803C13.421 22.1397 13.5 21.9489 13.5 21.75C13.5 21.1533 13.7371 20.581 14.159 20.159C14.581 19.7371 15.1533 19.5 15.75 19.5H22.5C22.6989 19.5 22.8897 19.421 23.0303 19.2803C23.171 19.1397 23.25 18.9489 23.25 18.75V5.25C23.25 5.05109 23.171 4.86032 23.0303 4.71967C22.8897 4.57902 22.6989 4.5 22.5 4.5ZM9.75 18H3.75V6H9.75C10.3467 6 10.919 6.23705 11.341 6.65901C11.7629 7.08097 12 7.65326 12 8.25V18.75C11.3515 18.262 10.5616 17.9987 9.75 18ZM21.75 18H15.75C14.9384 17.9987 14.1485 18.262 13.5 18.75V8.25C13.5 7.65326 13.7371 7.08097 14.159 6.65901C14.581 6.23705 15.1533 6 15.75 6H21.75V18Z" fill="white"/>
</svg>
