<svg width="25" height="24" viewBox="0 0 25 24" fill="none" xmlns="http://www.w3.org/2000/svg">
<g clip-path="url(#clip0_1_736)">
<path d="M20.2791 7.09501C20.5083 6.35551 20.5818 5.57653 20.495 4.80719C20.4082 4.03785 20.163 3.29484 19.7747 2.62501C19.7088 2.51097 19.6141 2.41628 19.5001 2.35045C19.386 2.28462 19.2567 2.24998 19.125 2.25001C18.2514 2.24818 17.3895 2.4507 16.6082 2.84137C15.8268 3.23205 15.1477 3.80006 14.625 4.50001H12.375C11.8523 3.80006 11.1732 3.23205 10.3918 2.84137C9.61047 2.4507 8.74857 2.24818 7.875 2.25001C7.74332 2.24998 7.61395 2.28462 7.4999 2.35045C7.38586 2.41628 7.29115 2.51097 7.22531 2.62501C6.83704 3.29484 6.59177 4.03785 6.50497 4.80719C6.41816 5.57653 6.49169 6.35551 6.72094 7.09501C6.25756 7.90381 6.00934 8.81793 6 9.75001V10.5C6.00158 11.769 6.46225 12.9946 7.29696 13.9504C8.13166 14.9063 9.28402 15.5278 10.5413 15.7003C10.0281 16.357 9.74952 17.1666 9.75 18V18.75H7.5C6.90326 18.75 6.33097 18.513 5.90901 18.091C5.48705 17.669 5.25 17.0968 5.25 16.5C5.25 16.0076 5.153 15.5199 4.96455 15.0649C4.77609 14.61 4.49987 14.1966 4.15165 13.8484C3.80343 13.5001 3.39003 13.2239 2.93506 13.0355C2.48009 12.847 1.99246 12.75 1.5 12.75C1.30109 12.75 1.11032 12.829 0.96967 12.9697C0.829018 13.1103 0.75 13.3011 0.75 13.5C0.75 13.6989 0.829018 13.8897 0.96967 14.0303C1.11032 14.171 1.30109 14.25 1.5 14.25C2.09674 14.25 2.66903 14.4871 3.09099 14.909C3.51295 15.331 3.75 15.9033 3.75 16.5C3.75 17.4946 4.14509 18.4484 4.84835 19.1517C5.55161 19.8549 6.50544 20.25 7.5 20.25H9.75V21.75C9.75 21.9489 9.82902 22.1397 9.96967 22.2803C10.1103 22.421 10.3011 22.5 10.5 22.5C10.6989 22.5 10.8897 22.421 11.0303 22.2803C11.171 22.1397 11.25 21.9489 11.25 21.75V18C11.25 17.4033 11.4871 16.831 11.909 16.409C12.331 15.9871 12.9033 15.75 13.5 15.75C14.0967 15.75 14.669 15.9871 15.091 16.409C15.5129 16.831 15.75 17.4033 15.75 18V21.75C15.75 21.9489 15.829 22.1397 15.9697 22.2803C16.1103 22.421 16.3011 22.5 16.5 22.5C16.6989 22.5 16.8897 22.421 17.0303 22.2803C17.171 22.1397 17.25 21.9489 17.25 21.75V18C17.2505 17.1666 16.9719 16.357 16.4587 15.7003C17.716 15.5278 18.8683 14.9063 19.703 13.9504C20.5377 12.9946 20.9984 11.769 21 10.5V9.75001C20.9907 8.81793 20.7424 7.90381 20.2791 7.09501ZM19.5 10.5C19.5 11.4946 19.1049 12.4484 18.4016 13.1517C17.6984 13.8549 16.7446 14.25 15.75 14.25H11.25C10.2554 14.25 9.30161 13.8549 8.59835 13.1517C7.89509 12.4484 7.5 11.4946 7.5 10.5V9.75001C7.5092 9.00004 7.73373 8.2685 8.14688 7.64251C8.22389 7.541 8.27377 7.42154 8.29182 7.2954C8.30986 7.16926 8.29547 7.04061 8.25 6.92157C8.05465 6.41776 7.96063 5.88035 7.97334 5.34013C7.98605 4.79992 8.10523 4.26752 8.32406 3.77345C8.93786 3.83948 9.52892 4.04281 10.0534 4.36836C10.578 4.69391 11.0225 5.13334 11.3541 5.65407C11.4216 5.75974 11.5146 5.84676 11.6245 5.9072C11.7344 5.96763 11.8577 5.99955 11.9831 6.00001H15.0159C15.1418 6.00002 15.2657 5.96833 15.3761 5.90787C15.4866 5.84742 15.58 5.76014 15.6478 5.65407C15.9793 5.1333 16.4238 4.69383 16.9484 4.36827C17.4729 4.04271 18.064 3.83941 18.6778 3.77345C18.8963 4.26765 19.0152 4.80011 19.0276 5.34032C19.04 5.88053 18.9456 6.41788 18.75 6.92157C18.7047 7.03947 18.6895 7.16682 18.7059 7.29206C18.7222 7.41731 18.7696 7.53648 18.8438 7.63876C19.261 8.26475 19.4888 8.9978 19.5 9.75001V10.5Z" fill="white"/>
</g>
<defs>
<clipPath id="clip0_1_736">
<rect width="24" height="24" fill="white" transform="translate(0.75)"/>
</clipPath>
</defs>
</svg>
