<svg width="78" height="40" viewBox="0 0 78 40" fill="none" xmlns="http://www.w3.org/2000/svg">
<g clip-path="url(#clip0_4011_1503)">
<path d="M75.0088 8.80847C75.6028 8.80847 76.1173 9.01297 76.5408 9.41897V9.41797C76.9728 9.82447 77.1943 10.3215 77.1943 10.899C77.1943 11.4765 76.9728 11.974 76.5408 12.38C76.1173 12.786 75.6028 12.9905 75.0088 12.9905C74.4148 12.9905 73.8968 12.7865 73.4653 12.381L73.4638 12.3795C73.0398 11.973 72.8233 11.4755 72.8233 10.8995C72.8233 10.3235 73.0398 9.82647 73.4638 9.41947L73.4653 9.41797C73.8968 9.01297 74.4148 8.80847 75.0088 8.80847Z" fill="white"/>
<path d="M49.2683 21.1865C50.0623 21.483 50.8198 21.888 51.5398 22.4L51.5403 22.4015C52.2798 22.9135 52.8883 23.5715 53.3658 24.3725C53.8523 25.189 54.0898 26.1815 54.0898 27.34C54.0898 28.6815 53.7378 29.8985 53.0323 30.985C52.3333 32.074 51.3123 32.934 49.9798 33.568C48.6498 34.2045 47.0433 34.5185 45.1683 34.5185C43.4193 34.5185 41.8943 34.236 40.5983 33.6645C39.3128 33.094 38.2928 32.295 37.5463 31.265V31.264C36.8083 30.2335 36.3918 29.038 36.2953 27.684L36.2793 27.462H39.7068L39.7233 27.6515C39.7983 28.5235 40.0898 29.2325 40.5888 29.791C41.1053 30.3515 41.7578 30.773 42.5523 31.053C43.3608 31.3275 44.2328 31.4655 45.1693 31.4655C46.2608 31.4655 47.2343 31.2885 48.0928 30.9395C48.9518 30.582 49.6243 30.0915 50.1173 29.4715C50.6048 28.8505 50.8493 28.127 50.8493 27.292C50.8493 26.532 50.6383 25.9325 50.2308 25.475C49.8068 24.999 49.2448 24.607 48.5373 24.303C47.8168 23.993 47.0368 23.721 46.1968 23.4875H46.1953L43.2278 22.6395C41.3223 22.0915 39.7993 21.3055 38.6703 20.2735C37.5243 19.2255 36.9543 17.853 36.9543 16.1755C36.9543 14.785 37.3308 13.564 38.0888 12.5205C38.8493 11.4765 39.8683 10.6695 41.1383 10.0985C42.4163 9.51997 43.8243 9.23247 45.4038 9.23247C46.9833 9.23247 48.3953 9.51597 49.6353 10.0875C50.8723 10.65 51.8588 11.4245 52.5888 12.4135C53.3288 13.4055 53.7193 14.534 53.7598 15.792L53.7668 16.006H50.5423L50.5208 15.823C50.3868 14.691 49.8473 13.819 48.8938 13.193C47.9293 12.5605 46.7383 12.238 45.3098 12.238C44.2643 12.238 43.3593 12.407 42.5898 12.739C41.8253 13.072 41.2363 13.526 40.8138 14.0965C40.4008 14.664 40.1943 15.308 40.1943 16.0345C40.1943 16.6435 40.3383 17.155 40.6178 17.579C40.9148 18.009 41.2933 18.3695 41.7563 18.661C42.2308 18.9515 42.7283 19.1925 43.2483 19.384C43.7773 19.5705 44.2623 19.7215 44.7028 19.838H44.7038L47.1518 20.497H47.1523C47.7888 20.664 48.4943 20.894 49.2683 21.1865Z" fill="white"/>
<path d="M76.5818 15.5915H73.3883V34.0935H76.5818V15.5915Z" fill="white"/>
<path d="M66.8028 29.1655C67.2683 28.4785 67.5088 27.5915 67.5088 26.491V15.592H70.7023V34.094H67.5088V31.318C67.0723 32.097 66.4578 32.77 65.6703 33.3365L65.6693 33.3375C64.7318 34.0035 63.5563 34.3295 62.1578 34.3295C60.9963 34.3295 59.9553 34.0755 59.0418 33.5605H59.0403C58.1218 33.0355 57.4038 32.2495 56.8853 31.2115C56.3643 30.1615 56.1098 28.8515 56.1098 27.292V15.5915H59.3033V27.1035C59.3033 28.382 59.6598 29.3785 60.3538 30.117C61.0573 30.858 61.9518 31.23 63.0528 31.23C63.7073 31.23 64.3788 31.0625 65.0688 30.721H65.0698C65.7558 30.385 66.3333 29.8695 66.8018 29.167L66.8028 29.1655Z" fill="white"/>
<path fill-rule="evenodd" clip-rule="evenodd" d="M25.0405 16.6825V16.6845C26.6715 18.7305 27.647 21.3225 27.647 24.141C27.647 26.9595 26.6425 29.6285 24.9665 31.6885L24.822 31.866L24.784 31.6405C24.7515 31.449 24.713 31.255 24.669 31.06C23.8305 27.375 21.0975 24.215 16.6 21.6565C13.563 19.9335 11.8245 17.8585 11.368 15.5015C11.073 13.977 11.2925 12.446 11.716 11.1345C12.1395 9.8235 12.7695 8.725 13.3045 8.064L15.054 5.9245C15.361 5.5495 15.935 5.5495 16.242 5.9245L25.041 16.683L25.0405 16.6825ZM27.808 14.545V14.544L16.081 0.2055C15.857 -0.0685 15.438 -0.0685 15.214 0.2055L3.487 14.5445V14.5455L3.449 14.593C1.2915 17.2705 0 20.6735 0 24.378C0 33.0055 7.0055 40 15.6475 40C24.2895 40 31.295 33.0055 31.295 24.378C31.295 20.6735 30.0035 17.2705 27.8455 14.5925L27.807 14.545H27.808ZM6.2935 16.636L7.3425 15.353L7.374 15.59C7.399 15.7775 7.4295 15.966 7.4655 16.1555C8.144 19.7165 10.5685 22.6855 14.622 24.985C18.1455 26.99 20.197 29.296 20.788 31.825C21.0345 32.8805 21.0785 33.919 20.972 34.827L20.9655 34.883L20.9145 34.908C19.3245 35.685 17.5365 36.121 15.647 36.121C9.02 36.121 3.6475 30.7575 3.6475 24.141C3.6475 21.3005 4.638 18.69 6.293 16.6365L6.2935 16.636Z" fill="white"/>
</g>
<defs>
<clipPath id="clip0_4011_1503">
<rect width="77.2" height="40" fill="white"/>
</clipPath>
</defs>
</svg>
