<svg width="2000" height="239" viewBox="0 0 2000 239" fill="none" xmlns="http://www.w3.org/2000/svg">
<g clip-path="url(#clip0_625_5514)">
<path d="M710.061 125.221H707.872L656.545 0H607.955V186.378H646.167V64.6119H647.725L695.949 185.466H721.984L770.209 65.062H771.754V186.378H809.978V0H761.388L710.061 125.221Z" fill="black"/>
<path d="M891.537 149.249H890.077L861.135 46.5946H820.368L870.515 190.381L868.24 196.293C866.536 200.661 864.322 203.751 861.597 205.576C858.933 207.401 855.745 208.24 852.047 208.118C848.41 207.997 844.31 207.242 839.76 205.843L831.025 234.785C833.811 235.941 837.339 236.878 841.585 237.608C845.891 238.399 850.502 238.788 855.417 238.788C865.004 238.788 873.191 237.243 879.992 234.141C886.78 231.111 892.401 226.768 896.829 221.123C901.318 215.539 904.87 208.994 907.474 201.464L961.806 46.5703H920.759L891.549 149.224L891.537 149.249Z" fill="black"/>
<path d="M1080.85 118.664C1074.17 112.471 1064.05 107.982 1050.46 105.196L1025.15 100.099C1018.66 98.6999 1014.08 96.8507 1011.42 94.5514C1008.74 92.2399 1007.42 89.4297 1007.42 86.0841C1007.42 81.8991 1009.48 78.5657 1013.61 76.0718C1017.73 73.5291 1022.79 72.2517 1028.8 72.2517C1033.29 72.2517 1037.15 73.006 1040.36 74.5267C1043.63 75.9866 1046.27 77.9574 1048.28 80.4392C1050.29 82.8602 1051.59 85.5975 1052.2 88.6267L1087.68 86.4369C1085.98 73.5778 1080.04 63.4073 1069.85 55.9497C1059.72 48.4922 1045.82 44.7573 1028.17 44.7573C1016.21 44.7573 1005.78 46.5213 996.867 50.0372C988.011 53.5531 981.125 58.5654 976.21 65.0497C971.356 71.5461 968.935 79.2713 968.935 88.2618C968.935 98.6999 972.244 107.277 978.85 114.016C985.517 120.756 995.687 125.489 1009.34 128.214L1033.55 133.044C1039.62 134.26 1044.11 136.012 1047.01 138.324C1049.92 140.574 1051.42 143.445 1051.47 146.973C1051.41 151.158 1049.29 154.589 1045.09 157.253C1040.97 159.857 1035.51 161.171 1028.7 161.171C1021.9 161.171 1016.11 159.711 1011.69 156.803C1007.26 153.835 1004.47 149.528 1003.32 143.883L965.188 145.891C967.074 159.236 973.473 169.796 984.385 177.558C995.371 185.259 1010.1 189.115 1028.62 189.115C1040.75 189.115 1051.45 187.205 1060.74 183.385C1070.08 179.504 1077.43 174.103 1082.76 167.18C1088.16 160.27 1090.86 152.229 1090.86 143.068C1090.86 132.995 1087.53 124.868 1080.85 118.676V118.664Z" fill="black"/>
<path d="M1171.64 156.621C1169.81 156.925 1168 157.071 1166.18 157.071C1163.57 157.071 1161.26 156.682 1159.27 155.891C1157.32 155.1 1155.81 153.738 1154.72 151.791C1153.62 149.784 1153.07 146.998 1153.07 143.421V75.7193H1179.38V46.5946H1153.07V13.1025H1114.3V46.5946H1095.19V75.7193H1114.3V148.519C1114.24 157.679 1116.15 165.259 1120.03 171.268C1123.91 177.278 1129.34 181.707 1136.32 184.553C1143.37 187.4 1151.55 188.653 1160.9 188.288C1165.93 188.106 1170.22 187.595 1173.73 186.743C1177.25 185.952 1179.99 185.259 1181.92 184.651L1175.82 155.806C1174.85 155.988 1173.46 156.256 1171.64 156.621V156.621Z" fill="black"/>
<path d="M1301.71 62.4341C1295.77 56.5459 1288.79 52.1541 1280.79 49.2343C1272.85 46.2659 1264.26 44.7695 1255.04 44.7695C1241.32 44.7695 1229.38 47.7988 1219.18 53.8695C1209.05 59.9401 1201.19 68.3953 1195.62 79.2592C1190.03 90.1232 1187.25 102.739 1187.25 117.119C1187.25 131.499 1190.03 144.638 1195.62 155.428C1201.2 166.171 1209.15 174.48 1219.46 180.368C1229.84 186.195 1242.21 189.103 1256.59 189.103C1268.13 189.103 1278.28 187.339 1287.08 183.823C1295.94 180.246 1303.15 175.271 1308.73 168.896C1314.38 162.46 1318.11 154.942 1319.93 146.329L1284.07 143.956C1282.74 147.472 1280.8 150.453 1278.25 152.874C1275.69 155.295 1272.64 157.12 1269.05 158.336C1265.47 159.553 1261.53 160.161 1257.23 160.161C1250.73 160.161 1245.12 158.798 1240.39 156.061C1235.66 153.336 1231.98 149.443 1229.38 144.406C1226.84 139.37 1225.56 133.396 1225.56 126.474V126.377H1320.74V115.732C1320.74 103.846 1319.08 93.4687 1315.74 84.6121C1312.41 75.6947 1307.74 68.2979 1301.73 62.4098L1301.71 62.4341ZM1225.59 102.386C1225.83 97.3739 1227.1 92.7874 1229.46 88.6389C1232.01 84.089 1235.53 80.4758 1240.02 77.8115C1244.57 75.0864 1249.79 73.7117 1255.68 73.7117C1261.57 73.7117 1266.26 74.9526 1270.51 77.4465C1274.82 79.8675 1278.19 83.2374 1280.61 87.544C1283.04 91.8507 1284.24 96.8021 1284.24 102.374H1225.59V102.386Z" fill="black"/>
<path d="M1441.8 51.1443C1434.59 46.8985 1426.12 44.7695 1416.41 44.7695C1406.04 44.7695 1397.21 47.1662 1389.93 51.9594C1382.65 56.6919 1377.46 63.1275 1374.37 71.2542H1372.73V46.5944H1335.78V186.378H1374.55V105.561C1374.61 99.5516 1375.73 94.4298 1377.92 90.184C1380.17 85.8773 1383.26 82.6048 1387.2 80.3541C1391.21 78.1035 1395.82 76.9842 1401.03 76.9842C1408.8 76.9842 1414.89 79.4052 1419.32 84.2593C1423.75 89.0526 1425.94 95.7315 1425.88 104.284V186.366H1464.65V97.3739C1464.65 86.51 1462.64 77.1667 1458.64 69.3442C1454.64 61.4608 1449.02 55.3902 1441.8 51.1443V51.1443Z" fill="black"/>
<path d="M1511.26 0H1494.24V186.378H1600.07V171.086H1511.26V0Z" fill="black"/>
<path d="M1707.59 54.0521C1702.61 50.5971 1697.21 48.164 1691.38 46.7771C1685.61 45.378 1680.07 44.6846 1674.73 44.6846C1667.62 44.6846 1660.61 45.7187 1653.7 47.7747C1646.79 49.782 1640.54 53.0789 1634.96 57.6897C1629.37 62.2396 1625 68.3346 1621.85 75.9868L1637.23 81.5344C1639.77 75.5245 1644.2 70.3055 1650.52 65.8772C1656.89 61.4489 1665.1 59.2347 1675.18 59.2347C1685.8 59.2347 1693.92 61.9963 1699.57 67.5195C1705.27 72.9819 1708.12 80.476 1708.12 90.0017V93.2743C1708.12 96.7901 1706.7 99.3449 1703.84 100.914C1700.99 102.496 1696.83 103.639 1691.37 104.369C1685.97 105.099 1679.36 105.951 1671.53 106.912C1663.64 107.885 1656.42 109.248 1649.87 111.012C1643.31 112.776 1637.65 115.172 1632.85 118.202C1628.06 121.231 1624.36 125.124 1621.74 129.856C1619.13 134.589 1617.83 140.416 1617.83 147.326C1617.83 156.305 1619.9 163.945 1624.02 170.259C1628.14 176.512 1633.69 181.305 1640.67 184.638C1647.66 187.911 1655.36 189.553 1663.79 189.553C1671.55 189.553 1678.31 188.313 1684.08 185.819C1689.85 183.337 1694.64 180.149 1698.46 176.268C1702.28 172.388 1705.16 168.385 1707.11 164.261H1708.11V186.378H1724.31V91.4616C1724.31 82.1183 1722.77 74.4175 1719.67 68.3468C1716.58 62.2153 1712.54 57.4585 1707.56 54.0643L1707.59 54.0521ZM1708.13 132.776C1708.13 140.416 1706.41 147.424 1702.95 153.798C1699.56 160.112 1694.7 165.173 1688.39 168.993C1682.07 172.813 1674.62 174.723 1666 174.723C1656.84 174.723 1649.23 172.412 1643.16 167.813C1637.09 163.142 1634.06 156.56 1634.06 148.068C1634.06 142.424 1635.54 137.813 1638.52 134.236C1641.49 130.599 1645.77 127.74 1651.36 125.684C1656.94 123.615 1663.67 122.107 1671.56 121.134C1674.47 120.769 1677.76 120.343 1681.39 119.856C1685.03 119.37 1688.67 118.798 1692.32 118.129C1696.02 117.399 1699.26 116.584 1702.05 115.671C1704.9 114.759 1706.93 113.725 1708.15 112.581V132.788L1708.13 132.776Z" fill="black"/>
<path d="M1851.18 53.7844C1842.5 47.7138 1832.43 44.6845 1820.96 44.6845C1812.41 44.6845 1805.3 46.2052 1799.67 49.2345C1794.08 52.2029 1789.57 55.9134 1786.1 60.3417C1782.71 64.77 1780.09 69.0767 1778.28 73.2617H1776.82V0H1760.53V186.378H1776.27V160.441H1778.28C1780.17 164.687 1782.83 169.054 1786.29 173.543C1789.74 177.972 1794.29 181.706 1799.94 184.736C1805.64 187.765 1812.73 189.286 1821.23 189.286C1832.63 189.286 1842.64 186.256 1851.25 180.186C1859.92 174.115 1866.66 165.66 1871.46 154.796C1876.31 143.932 1878.73 131.292 1878.73 116.851C1878.73 102.411 1876.31 89.88 1871.46 79.089C1866.6 68.2251 1859.84 59.7943 1851.17 53.7844H1851.18ZM1857.46 145.976C1854.12 154.711 1849.23 161.657 1842.81 166.816C1836.37 171.913 1828.51 174.456 1819.23 174.456C1809.95 174.456 1802.49 171.998 1796.12 167.083C1789.8 162.108 1784.95 155.283 1781.55 146.609C1778.22 137.874 1776.55 127.861 1776.55 116.571C1776.55 105.282 1778.22 95.5492 1781.55 86.9967C1784.89 78.3834 1789.72 71.6436 1796.02 66.7895C1802.39 61.8746 1810.12 59.4171 1819.22 59.4171C1828.32 59.4171 1836.44 61.9598 1842.88 67.0572C1849.32 72.0938 1854.17 78.9187 1857.44 87.532C1860.78 96.1453 1862.44 105.829 1862.44 116.559C1862.44 127.289 1860.78 137.217 1857.44 145.952L1857.46 145.976Z" fill="black"/>
<path d="M1991.17 125.306C1985.35 119.114 1976.58 114.601 1964.88 111.742L1943.76 106.559C1935.08 104.369 1928.65 101.437 1924.46 97.7269C1920.34 93.9677 1918.28 89.0771 1918.28 83.0794C1918.28 75.9868 1921.31 70.1838 1927.38 65.6946C1933.44 61.2055 1941.22 58.9549 1950.68 58.9549C1956.98 58.9549 1962.26 59.9524 1966.51 61.9598C1970.81 63.9671 1974.31 66.6557 1976.97 70.0621C1979.65 73.4563 1981.7 77.252 1983.16 81.437L1997.99 77.252C1994.6 67.118 1989.05 59.1738 1981.35 53.4073C1973.7 47.58 1963.48 44.6724 1950.68 44.6724C1941.28 44.6724 1932.89 46.3391 1925.56 49.6725C1918.22 53.0058 1912.46 57.6166 1908.27 63.5048C1904.09 69.3322 1901.99 76.0963 1901.99 83.7972C1901.99 93.1404 1904.9 100.963 1910.73 107.277C1916.54 113.591 1925.53 118.202 1937.66 121.109L1960.5 126.572C1968.15 128.397 1973.86 131.243 1977.61 135.124C1981.37 138.944 1983.26 143.677 1983.26 149.321C1983.26 156.597 1980.04 162.667 1973.61 167.521C1967.18 172.315 1958.59 174.711 1947.86 174.711C1938.27 174.711 1930.53 172.594 1924.65 168.336C1918.82 164.091 1914.91 157.813 1912.91 149.504L1897.35 153.324C1899.84 164.979 1905.51 173.896 1914.37 180.076C1923.22 186.208 1934.48 189.274 1948.13 189.274C1958.38 189.274 1967.4 187.546 1975.16 184.091C1982.98 180.575 1989.07 175.745 1993.44 169.626C1997.81 163.507 2000 156.487 2000 148.604C2000 139.26 1997.06 131.499 1991.17 125.306V125.306Z" fill="black"/>
<path d="M175.575 121.973C117.046 121.973 58.5291 238.8 0 238.8V122.18C60.8405 122.18 119.357 5.35303 175.575 5.35303V121.973Z" fill="black"/>
<path d="M351.345 121.085C292.815 121.085 234.299 237.912 175.77 237.912V121.304C236.61 121.304 295.127 4.47705 351.345 4.47705V121.085Z" fill="black"/>
<path d="M486.627 170.575C486.627 207.765 456.371 237.912 419.034 237.912C381.698 237.912 351.454 207.765 351.454 170.575C351.454 133.384 381.71 103.238 419.034 103.238C456.359 103.238 486.627 133.384 486.627 170.575Z" fill="black"/>
</g>
<defs>
<clipPath id="clip0_625_5514">
<rect width="2000" height="238.8" fill="white"/>
</clipPath>
</defs>
</svg>
