<svg width="25" height="24" viewBox="0 0 25 24" fill="none" xmlns="http://www.w3.org/2000/svg">
<rect width="25" height="24" fill="#1E1E1E"/>
<g id=".">
<path d="M-731 -1727C-731 -1728.1 -730.105 -1729 -729 -1729H1357C1358.1 -1729 1359 -1728.1 1359 -1727V755C1359 756.105 1358.1 757 1357 757H-729C-730.105 757 -731 756.104 -731 755V-1727Z" fill="#404040"/>
<path d="M-729 -1728H1357V-1730H-729V-1728ZM1358 -1727V755H1360V-1727H1358ZM1357 756H-729V758H1357V756ZM-730 755V-1727H-732V755H-730ZM-729 756C-729.552 756 -730 755.552 -730 755H-732C-732 756.657 -730.657 758 -729 758V756ZM1358 755C1358 755.552 1357.55 756 1357 756V758C1358.66 758 1360 756.657 1360 755H1358ZM1357 -1728C1357.55 -1728 1358 -1727.55 1358 -1727H1360C1360 -1728.66 1358.66 -1730 1357 -1730V-1728ZM-729 -1730C-730.657 -1730 -732 -1728.66 -732 -1727H-730C-730 -1727.55 -729.552 -1728 -729 -1728V-1730Z" fill="white" fill-opacity="0.1"/>
<g id="Web 3 Mini Games / Desktop">
<rect width="1440" height="1755" transform="translate(-631 -1629)" fill="#071221"/>
<g id="Content">
<g id="Frame 116045103">
<g id="button / sign in with">
<rect x="-19.5" y="-8" width="218" height="40" rx="20" fill="#4CA3FF"/>
<g id="XLogo">
<path id="Vector" d="M20.6328 19.8478L14.7641 10.6247L20.555 4.25438C20.686 4.10674 20.7535 3.91343 20.7429 3.71636C20.7323 3.51929 20.6444 3.33435 20.4984 3.20161C20.3523 3.06888 20.1598 2.99907 19.9627 3.00731C19.7655 3.01555 19.5795 3.10117 19.445 3.24562L13.9288 9.31312L10.1328 3.34781C10.0651 3.24127 9.97164 3.15353 9.86103 3.09274C9.75041 3.03194 9.62623 3.00004 9.50001 3H5.00001C4.86553 2.99993 4.73351 3.03603 4.61777 3.10449C4.50204 3.17296 4.40684 3.27129 4.34214 3.38918C4.27745 3.50707 4.24564 3.64018 4.25004 3.77458C4.25445 3.90898 4.29491 4.03973 4.36719 4.15313L10.2359 13.3753L4.44501 19.7503C4.37738 19.823 4.32485 19.9083 4.29045 20.0014C4.25605 20.0945 4.24047 20.1935 4.24461 20.2927C4.24875 20.3918 4.27254 20.4892 4.31458 20.5791C4.35663 20.669 4.4161 20.7496 4.48955 20.8164C4.563 20.8831 4.64896 20.9346 4.74246 20.9679C4.83597 21.0012 4.93514 21.0156 5.03425 21.0103C5.13335 21.0049 5.23041 20.98 5.31981 20.9369C5.4092 20.8937 5.48914 20.8333 5.55501 20.7591L11.0713 14.6916L14.8672 20.6569C14.9354 20.7625 15.0292 20.8494 15.1397 20.9093C15.2503 20.9693 15.3742 21.0005 15.5 21H20C20.1343 21 20.2662 20.9638 20.3818 20.8954C20.4974 20.827 20.5925 20.7288 20.6572 20.611C20.7218 20.4933 20.7537 20.3604 20.7494 20.2261C20.7451 20.0918 20.7049 19.9612 20.6328 19.8478ZM15.9116 19.5L6.36594 4.5H9.08469L18.6341 19.5H15.9116Z" fill="white"/>
</g>
</g>
</g>
</g>
</g>
</g>
</svg>
