<svg width="421" height="200" viewBox="0 0 421 200" fill="none" xmlns="http://www.w3.org/2000/svg">
<g filter="url(#filter0_b_1_714)">
<g clip-path="url(#clip0_1_714)">
<rect x="0.5" width="420" height="200" rx="10" fill="white" fill-opacity="0.05"/>
<g clip-path="url(#clip1_1_714)">
<rect width="420" height="262.5" transform="translate(1 -31.25)" fill="white"/>
<rect width="420" height="262.5" transform="translate(1 -31.25)" fill="url(#paint0_radial_1_714)"/>
<g style="mix-blend-mode:plus-lighter" opacity="0.2">
<path d="M474.417 -144.125C474.417 -9.08813 356.621 100.625 211 100.625C65.3791 100.625 -52.4167 -9.08813 -52.4167 -144.125C-52.4167 -279.162 65.3791 -388.875 211 -388.875C356.621 -388.875 474.417 -279.162 474.417 -144.125Z" stroke="white" stroke-opacity="0.2" stroke-width="4"/>
</g>
</g>
<rect x="127.555" y="47.4008" width="98.1413" height="135.967" rx="8.17844" transform="rotate(-15 127.555 47.4008)" fill="white"/>
<mask id="mask0_1_714" style="mask-type:alpha" maskUnits="userSpaceOnUse" x="127" y="22" width="131" height="157">
<rect x="127.555" y="47.4008" width="98.1413" height="135.967" transform="rotate(-15 127.555 47.4008)" fill="#D9D9D9"/>
</mask>
<g mask="url(#mask0_1_714)">
<path d="M141.211 61.489C138.921 62.1025 136.67 61.7761 135.995 59.2592L138.811 58.5048C139.116 59.6424 139.985 59.9277 140.753 59.722C141.961 59.3981 142.237 58.6079 141.913 57.3992L140.161 50.8582L142.791 50.1533L144.582 56.8366C145.314 59.5667 143.642 60.8375 141.211 61.489Z" fill="black"/>
<path d="M146.115 82.2682C147.15 81.9906 147.941 81.2619 148.337 80.3506C149.138 80.9407 150.187 81.1764 151.221 80.8988C153.026 80.415 154.094 78.5605 153.609 76.7573C153.185 75.1688 147.643 72.5115 146.317 71.8954C146.151 71.8182 145.957 71.8701 145.852 72.0201C145.013 73.2178 141.548 78.2936 141.974 79.881C142.458 81.6854 144.312 82.754 146.115 82.2682Z" fill="black"/>
<path d="M148.432 81.3486C148.47 81.2053 148.65 81.1573 148.754 81.2622L150.879 83.3871C150.984 83.492 150.936 83.6712 150.793 83.7096L147.89 84.4873C147.747 84.5257 147.616 84.3945 147.654 84.2512L148.432 81.3486Z" fill="black"/>
<mask id="mask1_1_714" style="mask-type:alpha" maskUnits="userSpaceOnUse" x="139" y="48" width="112" height="124">
<rect x="138.441" y="70.131" width="88.3272" height="106.32" rx="4.90707" transform="rotate(-15 138.441 70.131)" fill="white"/>
</mask>
<g mask="url(#mask1_1_714)">
<path d="M169.841 185.774L162.012 156.553L246.556 133.9L254.372 163.072L226.702 184.034C225.827 183.958 221.816 183.685 217.272 184.903C216.523 185.104 215.78 185.329 215.099 185.589C214.833 185.66 212.171 186.555 208.797 189.816C208.621 189.837 208.342 189.86 207.98 189.957C207.376 190.119 206.507 190.456 205.578 191.145C205.578 191.145 205.53 191.158 205.506 191.164C205.409 191.19 205.095 191.274 203.436 192.237C203.255 192.337 201.57 193.203 200.989 193.644C200.578 193.754 199.28 194.128 198.537 194.741L169.841 185.774Z" fill="#FFCE57"/>
<path d="M246.279 134.414L253.921 162.934L226.568 183.63C225.431 183.546 221.519 183.35 217.145 184.523C216.395 184.723 215.653 184.948 214.947 185.215C214.609 185.306 211.929 186.231 208.59 189.431C208.421 189.476 208.142 189.499 207.852 189.577C207.248 189.739 206.331 190.088 205.378 190.784C205.161 190.842 204.714 191.014 203.236 191.876C202.754 192.109 201.419 192.829 200.789 193.283C200.257 193.425 199.183 193.765 198.445 194.3L170.17 185.452L162.502 156.836L246.273 134.39M246.839 133.409L161.522 156.27L169.513 186.095L198.612 195.213C199.269 194.571 200.706 194.134 201.069 194.037C201.117 194.024 201.141 194.017 201.141 194.017C201.578 193.616 203.606 192.58 203.606 192.58C204.928 191.811 205.416 191.603 205.585 191.557C205.706 191.525 205.671 191.586 205.671 191.586C206.593 190.873 207.462 190.536 208.09 190.368C208.622 190.226 208.98 190.207 208.98 190.207C212.491 186.78 215.233 185.993 215.233 185.993C215.963 185.72 216.682 185.501 217.383 185.314C222.41 183.967 226.825 184.493 226.825 184.493L254.837 163.258L246.845 133.433L246.839 133.409Z" fill="black"/>
<path d="M232.204 149.557L212.313 154.887L212.52 155.661L232.411 150.331L232.204 149.557Z" fill="black"/>
<path d="M233.837 151.4L213.003 156.982L213.211 157.755L234.044 152.173L233.837 151.4Z" fill="black"/>
<path d="M234.715 153.418L214.824 158.748L215.031 159.521L234.922 154.191L234.715 153.418Z" fill="black"/>
<path d="M236.566 155.202L216.675 160.531L216.882 161.305L236.773 155.975L236.566 155.202Z" fill="black"/>
<path d="M238.386 156.968L218.519 162.291L218.726 163.064L238.593 157.741L238.386 156.968Z" fill="black"/>
<path d="M240.261 158.745L220.37 164.075L220.577 164.848L240.468 159.518L240.261 158.745Z" fill="black"/>
<path d="M240.897 160.828L221.03 166.151L221.237 166.925L241.104 161.602L240.897 160.828Z" fill="black"/>
<path d="M244.23 164.468L223.565 170.005L223.772 170.779L244.437 165.242L244.23 164.468Z" fill="black"/>
<path d="M198.612 195.213L169.513 186.095L161.522 156.27L202.392 145.319L232.632 180.062L226.231 184.886C226.231 184.886 219.949 184.16 214.807 187.014C214.807 187.014 213.794 187.389 210.297 190.58C210.297 190.58 206.751 190.882 205.371 191.822C205.371 191.822 204.88 191.824 202.607 193.107C202.607 193.107 200.857 193.731 200.421 194.133C200.421 194.133 199.34 194.448 198.606 195.189L198.612 195.213Z" fill="black"/>
<path d="M220.173 170.785C219.83 169.504 219.445 168.26 219.029 166.998L188.262 175.242L189.285 179.061L220.173 170.785Z" fill="white"/>
<path d="M217.74 163.251C217.415 162.328 217.059 161.387 216.686 160.477C216.686 160.477 216.631 160.465 216.625 160.441C216.233 160.235 215.889 160.017 215.533 159.749L186.216 167.605L187.239 171.424L217.74 163.251Z" fill="white"/>
<path d="M212.793 156.391C212.574 155.957 212.354 155.524 212.176 155.053C211.497 154.355 210.751 153.7 209.982 153.051L184.169 159.968L185.192 163.786L212.793 156.391Z" fill="white"/>
<path d="M206.107 149.997C205.319 149.379 204.563 148.778 203.872 148.134C203.398 147.718 203.062 147.238 202.836 146.78L182.123 152.33L183.146 156.149L206.107 149.997Z" fill="white"/>
<path d="M229.533 182.032C224.523 180.059 217.811 175.796 213.919 166.684C208.75 154.547 197.947 148.453 196.141 147.512L196.258 147.273L205.37 144.832C210.164 148.417 216.642 154.608 220.566 163.841C224.971 174.188 234.284 176.174 236.815 176.532L229.533 182.032Z" fill="white"/>
<path d="M205.303 145.161C210.043 148.735 216.421 154.849 220.289 163.967C224.416 173.663 232.79 176.108 236.084 176.702L229.491 181.681C224.56 179.712 218.013 175.483 214.197 166.558C209.293 155.023 199.339 148.909 196.692 147.442L205.296 145.136M205.413 144.509L196.036 147.022L195.761 147.64C195.761 147.64 208.043 153.648 213.642 166.81C217.56 176.018 224.316 180.347 229.576 182.383L237.457 176.412L237.437 176.339C237.437 176.339 225.838 175.588 220.802 163.752C216.821 154.405 210.282 148.178 205.396 144.54L205.413 144.509Z" fill="black"/>
<path d="M247.019 168.98L222.694 139.879L240.193 135.19L250.51 162.578L247.019 168.98Z" fill="black"/>
<path d="M246.887 168.782C247.633 166.924 248.414 163.554 247.008 159.372L240.682 135.473L246.556 133.9L254.372 163.072L246.887 168.782Z" fill="#FFCE57"/>
<path d="M246.28 134.414L253.921 162.934L247.707 167.681C248.256 165.669 248.565 162.763 247.426 159.286L241.21 135.798L246.31 134.432M246.839 133.409L240.169 135.197L246.598 159.482C248.701 165.783 245.728 170.155 245.728 170.155L254.807 163.24L246.815 133.416L246.839 133.409Z" fill="black"/>
<path d="M214.334 152.377C211.206 148.63 208.039 146.189 204.895 145.089L227.009 139.163C227.372 139.066 227.822 139.489 227.971 140.045L229.856 147.078C230.005 147.634 229.826 148.226 229.464 148.323L214.334 152.377Z" fill="#FFCE57"/>
<path d="M227.12 139.574C227.12 139.574 227.45 139.744 227.56 140.155L229.445 147.188C229.555 147.599 229.426 147.893 229.354 147.912L214.49 151.895C211.759 148.663 208.984 146.428 206.231 145.145L227.137 139.543M226.899 138.752L203.31 145.073C207.465 145.98 211.186 149.231 214.178 152.859L229.574 148.734C230.178 148.572 230.487 147.79 230.267 146.968L228.382 139.935C228.162 139.113 227.504 138.59 226.899 138.752Z" fill="black"/>
<path d="M216.28 149.006C215.149 147.781 213.995 146.665 212.665 145.856L224.991 142.553L226.021 146.396L216.28 149.006Z" fill="#FFCE57"/>
<path d="M224.29 143.803L224.801 145.713L216.632 147.902C216.095 147.346 215.557 146.791 214.985 146.297L224.314 143.797M224.998 141.515L209.457 145.679C212.141 146.126 214.068 148.096 215.966 150.152L226.552 147.316C226.939 147.212 227.149 146.741 227.02 146.258L225.925 142.173C225.802 141.714 225.384 141.412 224.998 141.515Z" fill="black"/>
<path d="M242.748 162.612L222.881 167.935L223.088 168.709L242.955 163.385L242.748 162.612Z" fill="black"/>
<path d="M169.738 185.387L162.187 157.206L185.123 151.06L196.469 193.404L196.423 193.52L169.738 185.387Z" fill="#F50032"/>
<path d="M184.847 151.574L195.934 192.952L170.066 185.066L162.684 157.513L184.847 151.574ZM185.407 150.569L161.697 156.922L169.41 185.708L196.631 194.008L196.895 193.446L185.407 150.569Z" fill="black"/>
<path d="M177.601 153.438L182.797 152.046L193.567 192.239L187.497 190.369L177.601 153.438Z" fill="#FFCE57"/>
<path d="M193.851 192.526L187.335 190.541L177.355 153.297L182.938 151.801L193.851 192.526ZM187.664 190.22L193.276 191.928L182.655 152.291L177.846 153.58L187.664 190.22Z" fill="black"/>
<path d="M170.398 154.591L175.594 153.199L185.541 190.322L179.592 188.808L170.398 154.591Z" fill="black"/>
<path d="M164.139 157.045L169.093 155.718L177.596 187.452L171.839 185.782L164.139 157.045Z" fill="white"/>
<path d="M177.887 187.762L171.654 185.962L163.87 156.91L169.235 155.472L177.887 187.762ZM172.006 185.634L177.337 187.159L168.976 155.956L164.384 157.187L172 185.61L172.006 185.634Z" fill="black"/>
<path d="M197.351 65.0187C197.351 65.0187 197.115 70.1332 201.245 73.5598C205.524 77.1538 205.283 79.446 205.283 79.446C205.283 79.446 202.528 80.1843 202.797 82.4437C203.101 85.0303 205.723 88.6279 210.305 85.7164C210.305 85.7164 213.062 83.2422 210.213 77.7365C207.341 72.2373 201.01 67.8462 201.828 63.8448L197.381 65.0364L197.351 65.0187Z" fill="#F50032"/>
<path d="M208.345 86.8115C207.04 87.1612 205.823 86.9693 204.81 86.2823C203.385 85.3169 202.726 83.6285 202.591 82.4472C202.343 80.3635 204.489 79.4776 205.063 79.298C205.03 78.7888 204.655 76.7132 201.109 73.726C196.965 70.2511 197.151 65.0464 197.162 64.9915L197.172 64.8336L202.078 63.5189L202.011 63.8478C201.553 66.1984 203.615 68.6764 206.025 71.5796C207.617 73.4587 209.234 75.4344 210.388 77.6122C213.31 83.2016 210.567 85.7241 210.441 85.8355L210.417 85.842C209.715 86.3151 209.022 86.6302 208.345 86.8115ZM197.548 65.1732C197.544 66.0291 197.757 70.4016 201.358 73.4001C205.674 77.036 205.47 79.3701 205.472 79.4732L205.456 79.607L205.335 79.6394C205.335 79.6394 202.749 80.3324 202.997 82.4161C203.13 83.4943 203.703 85.0506 205.035 85.9629C206.435 86.9347 208.236 86.7891 210.181 85.5425C210.39 85.3569 212.729 82.9686 210.027 77.8125C208.91 75.6766 207.3 73.725 205.739 71.8636C203.372 69.0265 201.31 66.5484 201.59 64.1159L197.578 65.1909L197.548 65.1732Z" fill="black"/>
<path d="M193.122 66.5406C193.122 66.5406 192.886 71.6551 197.016 75.0816C201.295 78.6756 201.054 80.9679 201.054 80.9679C201.054 80.9679 198.299 81.7062 198.561 83.9414C198.866 86.528 201.488 90.1256 206.07 87.2141C206.07 87.2141 208.85 84.7334 205.978 79.2342C203.106 73.7349 196.781 69.3681 197.593 65.3425L193.146 66.5341L193.122 66.5406Z" fill="#F50032"/>
<path d="M204.122 88.3575C202.817 88.7072 201.6 88.5152 200.587 87.8282C199.163 86.8629 198.503 85.1745 198.368 83.9932C198.121 81.9094 200.266 81.0236 200.864 80.8375C200.831 80.3282 200.456 78.2527 196.91 75.2655C192.767 71.7906 192.959 66.61 192.97 66.5552L192.98 66.3972L197.886 65.0826L197.819 65.4115C197.361 67.762 199.43 70.2643 201.833 73.1433C203.425 75.0223 205.042 76.9981 206.196 79.1758C209.118 84.7653 206.381 87.312 206.249 87.3992L206.225 87.4056C205.523 87.8787 204.83 88.1939 204.153 88.3752L204.122 88.3575ZM193.318 66.695C193.339 67.5444 193.528 71.9234 197.129 74.9219C201.445 78.5578 201.241 80.8919 201.243 80.995L201.227 81.1288L201.106 81.1612C201.106 81.1612 198.527 81.8783 198.768 83.9379C198.901 85.016 199.474 86.5724 200.8 87.4605C202.2 88.4323 204 88.2867 205.945 87.0401C206.155 86.8545 208.47 84.4727 205.791 79.3101C204.675 77.1742 203.04 75.2291 201.472 73.3436C199.106 70.5064 197.043 68.0283 197.324 65.5958L193.312 66.6708L193.318 66.695Z" fill="black"/>
<path d="M189.738 67.4471C189.738 67.4471 189.503 72.5616 193.609 75.9946C197.887 79.5887 197.647 81.8809 197.647 81.8809C197.647 81.8809 194.916 82.6127 195.154 84.8544C195.458 87.441 198.08 91.0386 202.662 88.1271C202.662 88.1271 205.419 85.6529 202.57 80.1472C199.698 74.6479 193.373 70.2811 194.185 66.2555L189.738 67.4471Z" fill="#F50032"/>
<path d="M200.715 89.2706C199.41 89.6203 198.193 89.4283 197.18 88.7413C195.755 87.7759 195.096 86.0876 194.96 84.9063C194.713 82.8225 196.859 81.9367 197.457 81.7506C197.424 81.2413 197.049 79.1658 193.503 76.1785C189.359 72.7036 189.551 67.5231 189.563 67.4683L189.572 67.3103L194.478 65.9957L194.411 66.3246C193.929 68.6816 196.022 71.1774 198.426 74.0564C199.993 75.9419 201.635 77.9112 202.764 80.0954C205.686 85.6848 202.949 88.2315 202.817 88.3187L202.793 88.3252C202.091 88.7983 201.398 89.1134 200.721 89.2947L200.715 89.2706ZM189.935 67.6016C189.931 68.4575 190.144 72.83 193.746 75.8285C198.061 79.4644 197.858 81.7985 197.86 81.9016L197.844 82.0354L197.699 82.0743C197.699 82.0743 195.119 82.7914 195.36 84.851C195.494 85.9291 196.09 87.479 197.392 88.3736C198.816 89.3389 200.592 89.1998 202.538 87.9532C202.747 87.7676 205.086 85.3793 202.384 80.2232C201.267 78.0873 199.656 76.1357 198.065 74.2567C195.699 71.4195 193.636 68.9414 193.916 66.5089L189.904 67.5839L189.935 67.6016Z" fill="black"/>
<path d="M230.119 81.9356L219.509 84.7786L220.014 86.6638L230.625 83.8208L230.119 81.9356Z" fill="black"/>
<path d="M176.194 84.961C176.194 84.961 178.336 83.8688 179.403 84.8524C179.403 84.8524 178.372 85.6466 177.321 84.8146C177.321 84.8146 176.507 84.7736 176.194 84.961Z" fill="black"/>
<path d="M179.483 90.6596C180.064 90.6073 180.925 90.5322 181.546 89.9512C181.546 89.9512 180.963 91.7394 179.048 91.5531L179.483 90.6596Z" fill="black"/>
<path d="M186.912 95.378C183.553 96.2782 180.861 96.0929 180.806 96.0816C180.187 96.092 179.686 95.8638 179.332 95.4145C178.383 94.1923 178.91 91.616 179.074 90.8728C178.286 90.2548 178.215 88.9268 178.191 88.5448L177.763 88.0118L177.555 86.4615C175.746 86.4798 174.594 86.1411 174.09 85.4212C173.673 84.8334 173.869 84.211 173.893 84.2045L175.274 79.3014C175.078 78.8616 174.228 77.0429 174.031 76.5C173.543 75.2579 173.507 71.3558 173.517 71.1978L174.087 71.2003C174.087 71.2003 174.105 75.1331 174.567 76.2785C174.802 76.8633 175.847 79.1218 175.854 79.146L175.88 79.2427L174.43 84.3715C174.437 84.3957 174.303 84.7682 174.546 85.0919C174.831 85.4816 175.628 85.9416 177.788 85.881L178.042 85.8646L178.293 87.7662L178.751 88.3169L178.777 88.4135C178.742 88.8633 178.873 90.1235 179.51 90.4709L179.694 90.5771L179.649 90.7963C179.408 91.638 178.976 94.0852 179.751 95.0433C179.986 95.3428 180.335 95.4826 180.802 95.4869C180.912 95.5093 190.008 96.1029 195.285 89.4044L195.716 89.7552C193.184 92.9722 189.782 94.5832 186.882 95.3603L186.912 95.378Z" fill="black"/>
<path d="M201.483 61.6838L172.842 69.358L173.458 71.654L202.098 63.9799L201.483 61.6838Z" fill="white"/>
<path d="M202.282 64.086L173.327 71.8444L172.628 69.2341L201.582 61.4758L202.282 64.086ZM173.557 71.446L201.884 63.856L201.352 61.8741L173.026 69.4641L173.557 71.446Z" fill="black"/>
<path d="M172.723 67.6543C172.24 66.7217 170.597 63.9755 167.862 62.662L202.424 53.4011C200.712 55.9063 200.687 59.0993 200.711 60.155L172.699 67.6608L172.723 67.6543Z" fill="#FFCE57"/>
<path d="M201.585 54.0405C200.463 56.2322 200.316 58.6807 200.317 59.8461L172.934 67.1835C172.352 66.1736 171.025 64.1201 168.933 62.7897L201.585 54.0405ZM203.553 52.6842L166.55 62.5991C170.434 63.6566 172.512 68.1253 172.512 68.1253L201.153 60.4511C201.153 60.4511 200.712 55.5179 203.553 52.6842Z" fill="black"/>
<path d="M171.078 65.8674C171.078 65.8674 172.667 68.7054 172.842 69.358L201.483 61.6838C201.483 61.6838 200.904 58.6527 201.072 57.8305L171.054 65.8738L171.078 65.8674Z" fill="black"/>
<path d="M159.324 146.523L151.508 117.351L179.178 96.3884C180.029 96.4712 184.064 96.7371 188.607 95.5196C189.357 95.3188 190.093 95.0698 190.781 94.8336C191.023 94.7688 193.708 93.8679 197.083 90.6064C197.228 90.5675 197.531 90.5382 197.893 90.441C198.498 90.2791 199.366 89.9428 200.295 89.2535C200.319 89.247 200.344 89.2405 200.368 89.234C200.464 89.2081 200.779 89.1239 202.438 88.1613C202.618 88.0612 204.303 87.1952 204.884 86.7545C205.295 86.6444 206.594 86.2706 207.336 85.6572L236.008 94.6312L243.837 123.852L159.318 146.499L159.324 146.523Z" fill="#FFCE57"/>
<path d="M207.459 86.1163L235.71 94.97L243.378 123.586L159.608 146.032L151.966 117.513L179.288 96.7992C180.425 96.8833 184.337 97.0784 188.711 95.9063C189.461 95.7055 190.197 95.4564 190.909 95.2138C191.247 95.1231 193.927 94.198 197.266 90.9978C197.435 90.9524 197.714 90.9295 198.004 90.8518C198.608 90.6899 199.525 90.3407 200.478 89.6449C200.696 89.5866 201.142 89.4152 202.62 88.5527C203.102 88.32 204.437 87.5996 205.067 87.1459C205.599 87.0034 206.673 86.6637 207.435 86.1228M207.268 85.2091C206.635 85.8449 205.174 86.2883 204.811 86.3855L204.739 86.4049C204.303 86.8067 202.275 87.8423 202.275 87.8423C200.952 88.6111 200.464 88.8196 200.295 88.865C200.174 88.8973 200.216 88.8602 200.216 88.8602C199.293 89.5737 198.425 89.91 197.797 90.0784C197.265 90.2209 196.907 90.239 196.907 90.239C193.389 93.6425 190.629 94.4598 190.629 94.4598C189.924 94.7266 189.181 94.9515 188.48 95.1393C183.453 96.4864 179.037 95.9597 179.037 95.9597L151.05 117.188L159.041 147.013L244.359 124.152L236.367 94.3277L207.268 85.2091Z" fill="black"/>
<path d="M193.33 124.744L173.463 130.067L173.67 130.841L193.537 125.517L193.33 124.744Z" fill="black"/>
<path d="M192.67 122.667L171.836 128.249L172.044 129.023L192.877 123.44L192.67 122.667Z" fill="black"/>
<path d="M190.843 120.877L170.952 126.207L171.159 126.98L191.05 121.65L190.843 120.877Z" fill="black"/>
<path d="M188.975 119.124L169.108 124.447L169.315 125.221L189.182 119.897L188.975 119.124Z" fill="black"/>
<path d="M187.124 117.34L167.257 122.664L167.464 123.437L187.331 118.114L187.124 117.34Z" fill="black"/>
<path d="M185.303 115.574L165.412 120.904L165.619 121.677L185.511 116.348L185.303 115.574Z" fill="black"/>
<path d="M184.613 113.48L164.746 118.803L164.953 119.576L184.82 114.253L184.613 113.48Z" fill="black"/>
<path d="M182.101 109.619L161.437 115.156L161.644 115.93L182.309 110.393L182.101 109.619Z" fill="black"/>
<path d="M207.268 85.2091L236.367 94.3276L244.359 124.152L203.489 135.103L173.248 100.36L179.649 95.5367C179.649 95.5367 185.907 96.269 191.073 93.4083C191.073 93.4083 192.086 93.0332 195.583 89.8425C195.583 89.8425 199.129 89.54 200.509 88.6003C200.509 88.6003 201.031 88.6158 203.273 87.3156C203.273 87.3156 205.023 86.6914 205.459 86.2895C205.459 86.2895 206.547 85.9981 207.275 85.2332L207.268 85.2091Z" fill="black"/>
<path d="M180.881 102.745L181.568 105.307C182.375 105.324 183.169 105.577 183.814 106.052L215.572 97.5423L214.549 93.7236L180.881 102.745Z" fill="white"/>
<path d="M185.707 109.638C186.051 110.919 186.46 112.156 186.851 113.424L217.619 105.18L216.595 101.361L185.707 109.638Z" fill="white"/>
<path d="M188.141 117.171C188.49 118.088 188.822 119.035 189.195 119.946C189.195 119.946 189.226 119.963 189.256 119.981C189.648 120.187 189.998 120.43 190.348 120.673L219.665 112.817L218.642 108.998L188.141 117.171Z" fill="white"/>
<path d="M193.063 124.038C193.283 124.471 193.503 124.905 193.68 125.375C194.384 126.067 195.129 126.723 195.875 127.378L221.688 120.461L220.664 116.642L193.039 124.045L193.063 124.038Z" fill="white"/>
<path d="M199.774 130.426C200.561 131.044 201.318 131.644 202.009 132.288C202.483 132.705 202.812 133.161 203.045 133.642L223.758 128.092L222.735 124.273L199.774 130.426Z" fill="white"/>
<path d="M200.511 135.591C195.716 132.005 189.239 125.814 185.314 116.582C180.91 106.234 171.596 104.248 169.065 103.89L176.347 98.3903C181.357 100.364 188.069 104.627 191.961 113.738C197.137 125.9 207.933 131.97 209.74 132.91L209.622 133.149L200.535 135.584L200.511 135.591Z" fill="white"/>
<path d="M176.383 98.7174C181.339 100.679 187.862 104.916 191.678 113.84C196.582 125.375 206.536 131.489 209.206 132.95L200.602 135.255C195.863 131.681 189.484 125.567 185.616 116.449C181.489 106.753 173.115 104.308 169.821 103.714L176.414 98.7351M176.287 98.0696L168.406 104.041L168.432 104.138C168.432 104.138 180.032 104.889 185.038 116.708C189.019 126.054 195.563 132.305 200.443 135.919L209.821 133.407L210.096 132.789C210.096 132.789 197.813 126.78 192.214 113.619C188.296 104.41 181.541 100.081 176.287 98.0696Z" fill="black"/>
<path d="M158.862 111.443L183.163 140.55L165.688 145.232L155.371 117.844L158.862 111.443Z" fill="black"/>
<path d="M159.324 146.523L151.508 117.351L158.992 111.641C158.247 113.498 157.466 116.868 158.871 121.051L165.191 144.925L159.318 146.499L159.324 146.523Z" fill="#FFCE57"/>
<path d="M158.18 112.765C157.631 114.777 157.322 117.684 158.467 121.185L164.683 144.672L159.608 146.032L151.966 117.513L158.18 112.765ZM160.122 110.25L151.05 117.188L159.041 147.013L165.688 145.232L159.258 120.947C157.156 114.646 160.129 110.274 160.129 110.274L160.122 110.25Z" fill="black"/>
<path d="M178.871 141.259C178.508 141.357 178.058 140.933 177.909 140.377L176.018 133.32C175.869 132.764 176.047 132.172 176.41 132.075L191.54 128.021C194.668 131.768 197.835 134.209 200.979 135.31L178.864 141.235L178.871 141.259Z" fill="#FFCE57"/>
<path d="M191.384 128.503C194.115 131.735 196.897 133.994 199.667 135.247L178.761 140.848C178.761 140.848 178.43 140.678 178.32 140.267L176.429 133.21C176.319 132.799 176.448 132.505 176.52 132.486L191.384 128.503ZM191.702 127.563L176.306 131.688C175.702 131.85 175.394 132.632 175.614 133.454L177.505 140.512C177.725 141.333 178.383 141.856 178.988 141.694L202.577 135.374C198.422 134.466 194.695 131.191 191.709 127.587L191.702 127.563Z" fill="black"/>
<path d="M180.89 137.869L179.86 134.026L189.6 131.416C190.725 132.617 191.886 133.757 193.192 134.573L180.89 137.869Z" fill="#FFCE57"/>
<path d="M189.279 132.538C189.816 133.094 190.347 133.625 190.92 134.119L181.591 136.619L181.086 134.734L189.255 132.545M189.915 130.27L179.328 133.106C178.942 133.21 178.731 133.681 178.854 134.14L179.949 138.225C180.072 138.684 180.489 138.986 180.876 138.883L196.417 134.719C193.726 134.248 191.806 132.302 189.908 130.246L189.915 130.27Z" fill="black"/>
<path d="M182.793 111.714L162.901 117.044L163.109 117.817L183 112.487L182.793 111.714Z" fill="black"/>
<path d="M220.733 129.369L209.387 87.0246L209.458 86.902L236.143 95.0354L243.694 123.217L220.733 129.369Z" fill="#F50032"/>
<path d="M209.946 87.4705L235.814 95.3567L243.197 122.91L221.033 128.848L209.946 87.4705ZM209.249 86.414L208.961 86.9833L220.45 129.859L244.184 123.5L236.471 94.7144L209.249 86.414Z" fill="black"/>
<path d="M228.279 126.984L223.083 128.377L212.313 88.1833L218.384 90.0538L228.279 126.984Z" fill="#FFCE57"/>
<path d="M228.525 127.126L222.942 128.622L212.029 87.8967L218.545 89.881L228.525 127.126ZM223.225 128.131L228.034 126.843L218.217 90.2022L212.604 88.494L223.225 128.131Z" fill="black"/>
<path d="M235.483 125.831L230.287 127.224L220.339 90.0997L226.289 91.6141L235.483 125.831Z" fill="black"/>
<path d="M241.742 123.377L236.763 124.711L228.253 92.9529L234.042 94.64L241.742 123.377Z" fill="white"/>
<path d="M244.079 123.108L158.761 145.969L165.958 172.828L251.276 149.967L244.079 123.108Z" fill="black"/>
<path d="M244.079 123.108L158.761 145.969L161.725 157.028L247.042 134.168L244.079 123.108Z" fill="#FFCE57"/>
<path d="M241.987 123.519L236.621 124.956L227.969 92.6663L234.203 94.4672L241.987 123.519ZM236.905 124.466L241.473 123.242L233.857 94.819L228.544 93.2635L236.905 124.466Z" fill="black"/>
<path d="M250.429 146.807L165.902 169.456L166.748 172.616L251.276 149.967L250.429 146.807Z" fill="#F50032"/>
<path d="M160.039 157.057L159.644 157.163L159.75 157.558L160.597 160.718L160.702 161.113L161.097 161.007L249.575 137.299L249.97 137.193L249.864 136.798L249.017 133.638L248.911 133.244L248.517 133.349L160.039 157.057Z" fill="#FFCE57" stroke="black" stroke-width="0.817844"/>
<path d="M161.732 163.377L161.337 163.482L161.443 163.877L162.29 167.037L162.396 167.432L162.791 167.327L251.268 143.619L251.663 143.513L251.557 143.118L250.711 139.958L250.605 139.563L250.21 139.669L161.732 163.377Z" fill="white" stroke="black" stroke-width="0.817844"/>
<path d="M243.482 123.973L245.994 133.351L162.224 155.797L159.711 146.419L243.482 123.973ZM244.041 122.968L158.724 145.829L161.651 156.753L246.968 133.893L244.041 122.968Z" fill="black"/>
<path d="M209.926 132.058L196.343 135.697L199.289 146.694L212.872 143.055L209.926 132.058Z" fill="#F50032"/>
<path d="M213.386 143.331L198.982 147.191L195.821 135.396L210.226 131.537L213.386 143.331ZM199.559 146.156L212.344 142.73L209.618 132.554L196.832 135.98L199.559 146.156Z" fill="black"/>
<path d="M208.614 133.834L198.342 136.586L200.57 144.9L210.842 142.148L208.614 133.834Z" fill="#FFCE57"/>
<path d="M190.467 145.38C190.591 144.491 190.521 143.552 190.275 142.633C189.265 138.863 185.397 136.61 181.651 137.613C177.904 138.617 175.682 142.503 176.692 146.273C177.055 147.626 177.778 148.78 178.733 149.638L187.341 158.755L190.491 145.373L190.467 145.38Z" fill="#FFCE57"/>
<path d="M187.518 159.511L178.47 149.915C177.441 148.974 176.692 147.724 176.329 146.37C175.267 142.407 177.62 138.331 181.56 137.275C185.499 136.219 189.575 138.573 190.637 142.536C190.89 143.479 190.949 144.473 190.837 145.41L187.535 159.48L187.518 159.511ZM181.747 137.976C178.195 138.928 176.071 142.605 177.03 146.182C177.36 147.415 178.022 148.533 178.977 149.391L187.123 158.036L190.113 145.319C190.22 144.461 190.163 143.57 189.936 142.724C188.978 139.147 185.3 137.024 181.747 137.976Z" fill="black"/>
<path d="M190.467 145.38C190.591 144.491 190.521 143.552 190.275 142.633C189.265 138.863 185.397 136.61 181.651 137.613C177.904 138.617 175.682 142.503 176.692 146.273C177.055 147.626 177.778 148.78 178.733 149.638C178.733 149.638 177.117 143.025 182.685 141.377C182.685 141.377 188.848 139.726 190.084 147.14L190.491 145.373L190.467 145.38Z" fill="white"/>
<path d="M189.981 148.981L189.69 147.22C189.312 144.938 188.411 143.314 187.006 142.421C185.036 141.162 182.758 141.746 182.734 141.753C177.576 143.29 178.989 149.336 179.053 149.578L179.358 150.714L178.47 149.915C177.434 148.949 176.692 147.724 176.329 146.37C175.267 142.407 177.62 138.331 181.56 137.275C185.499 136.219 189.575 138.573 190.637 142.536C190.89 143.479 190.949 144.473 190.837 145.41L190.023 148.944L189.981 148.981ZM182.546 141.052C182.667 141.02 185.187 140.37 187.408 141.796C188.629 142.582 189.512 143.848 190.051 145.569L190.107 145.295C190.214 144.437 190.156 143.546 189.93 142.7C188.971 139.123 185.294 137 181.741 137.952C178.188 138.904 176.065 142.581 177.023 146.158C177.256 147.028 177.652 147.829 178.18 148.542C178.018 146.488 178.221 142.314 182.539 141.028L182.546 141.052Z" fill="black"/>
<path d="M189.247 150.499C189.305 149.939 189.283 149.375 189.128 148.795C188.499 146.451 186.109 145.071 183.789 145.692C181.469 146.314 180.088 148.705 180.717 151.049C180.937 151.871 181.386 152.579 181.978 153.146L187.299 158.792L189.247 150.499Z" fill="#FFCE57"/>
<path d="M187.442 159.324L181.793 153.325C181.14 152.723 180.702 151.959 180.475 151.114C179.808 148.624 181.277 146.081 183.742 145.42C186.207 144.759 188.751 146.228 189.418 148.717C189.573 149.297 189.608 149.91 189.539 150.524L187.466 159.317L187.442 159.324ZM183.86 145.958C181.685 146.541 180.4 148.802 180.983 150.978C181.184 151.727 181.602 152.418 182.157 152.942L187.15 158.236L188.974 150.442C189.037 149.907 188.998 149.374 188.862 148.866C188.273 146.667 186.036 145.375 183.86 145.958Z" fill="black"/>
<path d="M187.726 150.621C187.763 150.275 187.745 149.917 187.648 149.554C187.253 148.08 185.751 147.213 184.301 147.602C182.851 147.99 181.984 149.492 182.379 150.966C182.521 151.498 182.796 151.943 183.172 152.282L186.503 155.819L187.726 150.621Z" fill="#FFCE57"/>
<path d="M186.593 156.158L183.046 152.394C182.663 152.03 182.352 151.543 182.209 151.012C181.795 149.465 182.708 147.847 184.255 147.433C185.802 147.018 187.396 147.938 187.817 149.509C187.914 149.872 187.938 150.254 187.891 150.655L186.6 156.182L186.593 156.158ZM184.346 147.771C182.968 148.14 182.154 149.55 182.524 150.927C182.653 151.411 182.897 151.838 183.266 152.153L186.412 155.481L187.562 150.588C187.605 150.265 187.569 149.938 187.478 149.6C187.109 148.222 185.699 147.408 184.322 147.777L184.346 147.771Z" fill="black"/>
<path d="M187.479 159.366L180.057 151.485C179.2 150.704 178.594 149.701 178.296 148.589C177.422 145.326 179.351 141.986 182.589 141.118C185.828 140.25 189.175 142.203 190.042 145.441C190.25 146.215 190.312 147.027 190.21 147.806L187.503 159.359L187.479 159.366ZM182.738 141.674C179.814 142.457 178.062 145.491 178.852 148.44C179.124 149.455 179.68 150.368 180.438 151.072L187.137 158.188L189.596 147.737C189.687 147.013 189.626 146.304 189.438 145.603C188.648 142.655 185.638 140.897 182.714 141.68L182.738 141.674Z" fill="black"/>
<path d="M178.316 147.211L178.5 146.255L176.764 142.29C176.666 142.601 176.592 142.906 176.519 143.211L178.292 147.217L178.316 147.211Z" fill="black"/>
<path d="M177.84 140.215C177.685 140.411 177.555 140.602 177.431 140.816L178.857 144.398L179.348 144.007L177.84 140.215Z" fill="black"/>
<path d="M180.145 143.016L180.584 142.432L179.29 138.764C179.116 138.888 178.967 139.006 178.799 139.155L180.121 143.023L180.145 143.016Z" fill="black"/>
<path d="M181.589 141.93L182.143 141.678L181.004 137.813C180.81 137.864 180.63 137.964 180.443 138.04L181.583 141.906L181.589 141.93Z" fill="black"/>
<path d="M182.891 137.411C182.691 137.438 182.485 137.442 182.315 137.487L183.229 141.283L183.837 141.328L182.891 137.411Z" fill="black"/>
<path d="M184.842 137.535C184.647 137.484 184.434 137.463 184.221 137.443L184.998 141.405L185.632 141.546L184.842 137.535Z" fill="black"/>
<path d="M186.823 142.03L187.452 142.25L186.851 138.266C186.636 138.143 186.428 138.043 186.196 137.95L186.792 142.012L186.823 142.03Z" fill="black"/>
<path d="M189.321 144.391L188.869 139.902C188.671 139.644 188.43 139.423 188.196 139.227L188.682 143.552L189.321 144.391Z" fill="black"/>
<path d="M185.779 155.055L186.404 155.742L184.228 147.621C184.083 147.66 183.938 147.699 183.83 147.78L185.779 155.055Z" fill="black"/>
<path d="M184.766 153.979L185.347 154.601L183.559 147.93C183.427 148.017 183.32 148.098 183.212 148.179L184.766 153.979Z" fill="black"/>
<path d="M183.752 152.904L184.296 153.483L182.949 148.456C182.854 148.585 182.759 148.714 182.665 148.843L183.752 152.904Z" fill="black"/>
<path d="M182.713 151.732C182.844 151.93 182.999 152.121 183.171 152.282L183.245 152.366L182.429 149.321C182.343 149.577 182.287 149.851 182.279 150.112L182.706 151.707L182.713 151.732Z" fill="black"/>
<path d="M186.617 155.374L186.82 154.491L184.955 147.53C184.828 147.538 184.676 147.553 184.525 147.568L186.617 155.374Z" fill="black"/>
<path d="M186.961 153.857L187.147 153.004L185.697 147.59C185.556 147.55 185.392 147.517 185.258 147.501L186.955 153.833L186.961 153.857Z" fill="black"/>
<path d="M187.33 152.334L187.494 151.59L186.522 147.965C186.522 147.965 186.24 147.782 186.093 147.717L187.324 152.309L187.33 152.334Z" fill="black"/>
<path d="M187.663 150.871L187.726 150.621C187.763 150.275 187.744 149.917 187.647 149.555C187.524 149.095 187.287 148.693 186.996 148.382L187.663 150.871Z" fill="black"/>
<path d="M215.545 134.178C215.42 135.067 215.491 136.006 215.737 136.925C216.747 140.695 220.615 142.949 224.361 141.945C228.107 140.941 230.337 137.08 229.32 133.285C228.957 131.932 228.24 130.803 227.279 129.921L218.671 120.803L215.521 134.185L215.545 134.178Z" fill="#FFCE57"/>
<path d="M218.494 120.047L227.541 129.643C228.571 130.585 229.314 131.81 229.683 133.188C230.745 137.152 228.392 141.228 224.452 142.283C220.513 143.339 216.437 140.986 215.375 137.022C215.122 136.079 215.045 135.115 215.175 134.148L218.452 120.085L218.494 120.047ZM224.264 141.582C227.817 140.63 229.94 136.953 228.982 133.376C228.652 132.143 227.99 131.025 227.059 130.161L218.913 121.515L215.923 134.233C215.816 135.09 215.873 135.982 216.1 136.828C217.058 140.405 220.736 142.528 224.289 141.576L224.264 141.582Z" fill="black"/>
<path d="M215.545 134.178C215.42 135.067 215.491 136.006 215.737 136.925C216.747 140.695 220.615 142.949 224.361 141.945C228.107 140.941 230.337 137.08 229.32 133.285C228.957 131.932 228.24 130.803 227.279 129.921C227.279 129.921 228.895 136.533 223.327 138.181C223.327 138.181 217.164 139.832 215.928 132.418L215.521 134.185L215.545 134.178Z" fill="white"/>
<path d="M216.007 130.584L216.297 132.345C216.676 134.627 217.577 136.25 218.958 137.15C220.903 138.416 223.206 137.825 223.23 137.818C228.387 136.281 226.981 130.259 226.91 129.994L226.605 128.858L227.493 129.656C228.522 130.598 229.272 131.847 229.634 133.201C230.696 137.165 228.343 141.24 224.404 142.296C220.464 143.352 216.388 140.999 215.326 137.035C215.074 136.092 214.997 135.128 215.126 134.161L215.941 130.627L216.007 130.584ZM223.442 138.513C223.321 138.545 220.801 139.194 218.573 137.745C217.352 136.958 216.469 135.692 215.93 133.972L215.868 134.222C215.761 135.079 215.818 135.97 216.045 136.816C217.003 140.393 220.681 142.517 224.234 141.565C227.786 140.613 229.91 136.935 228.951 133.358C228.718 132.488 228.322 131.687 227.77 130.98C227.963 133.053 227.729 137.209 223.411 138.495L223.442 138.513Z" fill="black"/>
<path d="M216.74 129.066C216.659 129.632 216.704 130.189 216.86 130.769C217.488 133.114 219.878 134.494 222.199 133.872C224.519 133.25 225.899 130.86 225.271 128.516C225.051 127.694 224.602 126.985 224.009 126.419L218.689 120.773L216.74 129.066Z" fill="#FFCE57"/>
<path d="M218.546 120.241L224.219 126.233C224.872 126.835 225.31 127.599 225.537 128.444C226.204 130.934 224.735 133.477 222.27 134.138C219.805 134.799 217.261 133.33 216.594 130.841C216.439 130.261 216.404 129.648 216.473 129.034L218.522 120.247L218.546 120.241ZM222.127 133.606C224.303 133.023 225.588 130.762 225.005 128.587C224.804 127.838 224.386 127.147 223.831 126.622L218.838 121.328L217.014 129.122C216.95 129.657 216.99 130.191 217.126 130.698C217.715 132.898 219.952 134.189 222.127 133.606Z" fill="black"/>
<path d="M218.261 128.943C218.224 129.29 218.243 129.648 218.34 130.01C218.735 131.485 220.236 132.352 221.687 131.963C223.137 131.574 224.004 130.073 223.609 128.598C223.466 128.067 223.192 127.622 222.816 127.283L219.485 123.745L218.261 128.943Z" fill="#FFCE57"/>
<path d="M219.394 123.407L222.942 127.171C223.348 127.528 223.636 128.021 223.778 128.553C224.193 130.1 223.279 131.718 221.732 132.132C220.185 132.547 218.592 131.627 218.171 130.056C218.074 129.693 218.049 129.311 218.097 128.91L219.388 123.383L219.394 123.407ZM221.642 131.794C223.019 131.425 223.833 130.015 223.464 128.637C223.334 128.154 223.091 127.727 222.721 127.412L219.576 124.084L218.426 128.977C218.383 129.299 218.419 129.627 218.509 129.965C218.878 131.343 220.288 132.156 221.666 131.787L221.642 131.794Z" fill="black"/>
<path d="M218.527 120.168L225.949 128.049C226.806 128.83 227.411 129.833 227.709 130.945C228.577 134.184 226.655 137.548 223.416 138.416C220.178 139.284 216.831 137.331 215.963 134.093C215.756 133.319 215.693 132.507 215.796 131.728L218.503 120.175L218.527 120.168ZM223.267 137.86C226.192 137.077 227.919 134.049 227.136 131.125C226.864 130.11 226.308 129.196 225.55 128.493L218.851 121.377L216.392 131.827C216.301 132.551 216.362 133.26 216.549 133.961C217.333 136.886 220.343 138.644 223.291 137.854L223.267 137.86Z" fill="black"/>
<path d="M227.672 132.354L227.488 133.31L229.224 137.274C229.322 136.963 229.395 136.658 229.469 136.354L227.672 132.354Z" fill="black"/>
<path d="M228.148 139.35C228.302 139.153 228.433 138.963 228.556 138.748L227.155 135.161L226.664 135.551L228.148 139.35Z" fill="black"/>
<path d="M225.867 136.542L225.427 137.126L226.721 140.794C226.895 140.67 227.045 140.552 227.212 140.404L225.891 136.535L225.867 136.542Z" fill="black"/>
<path d="M224.398 137.635L223.868 137.88L225.007 141.746C225.201 141.694 225.381 141.594 225.544 141.524L224.405 137.659L224.398 137.635Z" fill="black"/>
<path d="M223.121 142.148C223.32 142.12 223.503 142.123 223.696 142.071L222.782 138.275L222.175 138.231L223.121 142.148Z" fill="black"/>
<path d="M221.146 142.029C221.365 142.074 221.554 142.101 221.767 142.122L220.99 138.16L220.356 138.018L221.146 142.029Z" fill="black"/>
<path d="M219.165 137.535L218.536 137.315L219.137 141.298C219.352 141.422 219.56 141.522 219.768 141.621L219.171 137.559L219.165 137.535Z" fill="black"/>
<path d="M216.691 135.167L217.142 139.657C217.341 139.914 217.581 140.135 217.815 140.331L217.306 136.012L216.691 135.167Z" fill="black"/>
<path d="M220.208 124.51L219.559 123.829L221.729 131.926C221.874 131.887 222.019 131.848 222.151 131.761L220.201 124.486L220.208 124.51Z" fill="black"/>
<path d="M221.221 125.586L220.64 124.964L222.428 131.635C222.536 131.554 222.668 131.467 222.776 131.386L221.221 125.586Z" fill="black"/>
<path d="M222.235 126.661L221.691 126.081L223.038 131.109C223.133 130.98 223.228 130.85 223.323 130.721L222.235 126.661Z" fill="black"/>
<path d="M223.275 127.833C223.144 127.635 222.989 127.443 222.816 127.282L222.742 127.199L223.552 130.22C223.638 129.963 223.694 129.689 223.702 129.428L223.275 127.833Z" fill="black"/>
<path d="M219.371 124.19L219.167 125.074L221.032 132.035C221.184 132.02 221.311 132.012 221.463 131.997L219.371 124.19Z" fill="black"/>
<path d="M219.026 125.707L218.834 126.536L220.285 131.95C220.425 131.99 220.589 132.024 220.723 132.04L219.026 125.707Z" fill="black"/>
<path d="M218.657 127.231L218.494 127.974L219.465 131.6C219.594 131.695 219.747 131.783 219.894 131.847L218.664 127.255L218.657 127.231Z" fill="black"/>
<path d="M218.324 128.693L218.261 128.943C218.224 129.29 218.243 129.648 218.34 130.01C218.463 130.469 218.7 130.872 218.991 131.183L218.324 128.693Z" fill="black"/>
<path d="M227.587 84.3757L222.898 85.6321L225.456 95.1789L230.145 93.9225L227.587 84.3757Z" fill="#F50032"/>
<path d="M227.452 84.645L229.906 93.8051L225.604 94.9579L223.15 85.7977L227.452 84.645ZM227.728 84.1305L222.653 85.4905L225.315 95.424L230.39 94.064L227.728 84.1305Z" fill="black"/>
<path d="M222.611 86.2013C222.611 86.2013 222.434 85.834 223.174 85.4028C223.174 85.4028 228.754 83.0268 229.692 84.3038C229.692 84.3038 230.397 85.0992 226.397 86.1194C226.397 86.1194 223.11 87.0001 222.611 86.2013Z" fill="white"/>
<path d="M226.793 86.2462L226.431 86.3434C225.851 86.4988 222.962 87.2211 222.413 86.3321C222.393 86.2596 222.154 85.7537 223.043 85.2047C223.092 85.1917 224.694 84.5032 226.338 84.0628C228.271 83.5447 229.419 83.574 229.866 84.1795C229.934 84.239 230.01 84.4259 229.935 84.6275C229.756 85.2192 228.727 85.7281 226.793 86.2462ZM222.815 86.0947C223.125 86.4779 224.864 86.2969 226.339 85.9019L226.677 85.8112C229.045 85.1765 229.425 84.6603 229.49 84.5136C229.501 84.4587 229.494 84.4346 229.494 84.4346C229.202 84.0207 228.098 84.0575 226.455 84.4978C224.811 84.9382 223.256 85.6138 223.256 85.6138C222.878 85.8448 222.802 86.0463 222.815 86.0947Z" fill="black"/>
<path d="M223.185 87.8607C223.185 87.8607 223.009 87.4934 223.748 87.0622C223.748 87.0622 229.329 84.6862 230.267 85.9632C230.267 85.9632 230.972 86.7586 226.971 87.7788C226.971 87.7788 223.708 88.6531 223.209 87.8542L223.185 87.8607Z" fill="white"/>
<path d="M227.367 87.9058L227.005 88.0029C226.425 88.1584 223.536 88.8807 222.987 87.9916C222.967 87.9191 222.722 87.3891 223.617 86.8642C223.665 86.8513 225.268 86.1627 226.912 85.7223C228.845 85.2043 229.993 85.2335 230.44 85.839C230.508 85.8986 230.584 86.0854 230.508 86.287C230.348 86.8481 229.301 87.3877 227.367 87.9058ZM223.396 87.7784C223.706 88.1616 225.445 87.9806 226.919 87.5856L227.257 87.4949C229.626 86.8602 230.006 86.344 230.076 86.2214C230.112 86.1601 230.081 86.1425 230.081 86.1425C229.795 85.7527 228.685 85.7654 227.041 86.2057C225.398 86.6461 223.867 87.3152 223.843 87.3217C223.465 87.5526 223.389 87.7542 223.402 87.8025L223.396 87.7784Z" fill="black"/>
<path d="M223.741 89.551C223.741 89.551 223.564 89.1837 224.304 88.7525C224.304 88.7525 229.884 86.3765 230.822 87.6535C230.822 87.6535 231.527 88.4489 227.527 89.4691C227.527 89.4691 224.264 90.3434 223.765 89.5446L223.741 89.551Z" fill="white"/>
<path d="M227.948 89.5894L227.585 89.6866C227.029 89.8355 224.116 90.5643 223.567 89.6753C223.548 89.6028 223.302 89.0728 224.197 88.5479C224.246 88.5349 225.849 87.8464 227.492 87.406C229.426 86.8879 230.598 86.9107 231.021 87.5227C231.088 87.5822 231.164 87.7691 231.089 87.9707C230.904 88.5382 229.881 89.0713 227.948 89.5894ZM223.952 89.4685C224.262 89.8517 225.994 89.6466 227.469 89.2515C227.59 89.2192 227.71 89.1868 227.831 89.1544C230.345 88.4809 230.615 87.9422 230.644 87.8568C230.644 87.8568 230.644 87.8568 230.637 87.8326C230.345 87.4187 229.21 87.4378 227.591 87.8717C225.972 88.3056 224.393 88.9877 224.393 88.9877C224.015 89.2186 223.933 89.396 223.952 89.4685Z" fill="black"/>
<path d="M223.527 86.2406C223.527 86.2406 223.279 85.8927 223.378 85.6847C223.378 85.6847 223.892 85.1844 224.249 85.4516C224.249 85.4516 224.66 85.7299 224.443 86.1766C224.443 86.1766 224.288 86.3734 223.527 86.2406Z" fill="white"/>
<path d="M224.306 86.3427C224.113 86.3945 223.852 86.3868 223.499 86.3259L223.475 86.3324L223.462 86.2841C223.449 86.2357 223.169 85.8702 223.28 85.6073C223.28 85.6073 223.519 85.3363 223.809 85.2586C223.978 85.2132 224.142 85.2469 224.271 85.3418C224.431 85.4545 224.697 85.7717 224.498 86.1877C224.48 86.2184 224.421 86.2862 224.276 86.325L224.306 86.3427ZM223.574 86.1244C224.116 86.2124 224.296 86.1122 224.345 86.0993C224.509 85.7445 224.196 85.5434 224.189 85.5192C224.122 85.4597 224.012 85.4372 223.891 85.4696C223.698 85.5214 223.506 85.6764 223.464 85.7135C223.442 85.8231 223.542 86.0035 223.574 86.1244Z" fill="black"/>
<path d="M223.987 87.9566C223.987 87.9566 223.739 87.6087 223.838 87.4007C223.838 87.4007 224.352 86.9004 224.708 87.1676C224.708 87.1676 225.12 87.4459 224.903 87.8926C224.903 87.8926 224.748 88.0895 223.987 87.9566Z" fill="white"/>
<path d="M224.766 88.0587C224.573 88.1105 224.312 88.1027 223.959 88.0419L223.934 88.0484L223.922 88C223.909 87.9517 223.629 87.5861 223.747 87.3475C223.747 87.3475 223.985 87.0764 224.275 86.9987C224.444 86.9533 224.609 86.987 224.738 87.0819C224.897 87.1946 225.17 87.5359 224.971 87.952C224.947 87.9585 224.887 88.0263 224.742 88.0651L224.766 88.0587ZM224.034 87.8403C224.576 87.9283 224.756 87.8282 224.805 87.8152C224.969 87.4604 224.649 87.2352 224.649 87.2352C224.581 87.1756 224.472 87.1532 224.351 87.1856C224.158 87.2374 223.966 87.3923 223.924 87.4294C223.902 87.5391 224.002 87.7195 224.034 87.8403Z" fill="black"/>
<path d="M224.529 89.4952C224.529 89.4952 224.281 89.1473 224.38 88.9393C224.38 88.9393 224.894 88.439 225.226 88.7126C225.226 88.7126 225.637 88.991 225.42 89.4377C225.42 89.4377 225.266 89.6345 224.529 89.4952Z" fill="white"/>
<path d="M225.308 89.5973C225.114 89.6492 224.853 89.6414 224.5 89.5806L224.452 89.5935L224.439 89.5452C224.426 89.4969 224.147 89.1313 224.258 88.8685C224.258 88.8685 224.496 88.5974 224.786 88.5197C224.955 88.4743 225.119 88.508 225.248 88.6029C225.408 88.7156 225.675 89.0328 225.475 89.4489C225.457 89.4795 225.398 89.5473 225.253 89.5861L225.308 89.5973ZM224.582 89.4032C225.124 89.4912 225.304 89.391 225.353 89.3781C225.499 89.0539 225.204 88.8222 225.197 88.798C225.105 88.7449 225.02 88.716 224.899 88.7484C224.706 88.8002 224.514 88.9552 224.472 88.9923C224.425 89.1084 224.55 89.2823 224.582 89.4032Z" fill="black"/>
<path d="M230.297 90.3329C229.031 91.2161 226.119 91.2712 226.119 91.2712C224.806 90.8198 225.714 89.9548 225.714 89.9548C225.714 89.9548 230.664 88.3177 231.463 89.2694C231.463 89.2694 232.412 90.4916 229.551 91.8022L229.173 90.9709L230.303 90.3571L230.297 90.3329Z" fill="white"/>
<path d="M229.447 92.089L229.006 91.1192C227.677 91.4754 226.208 91.5062 226.154 91.4949L226.081 91.5144C225.586 91.3103 225.284 91.0544 225.224 90.7337C225.095 90.2503 225.525 89.8243 225.591 89.7807L225.639 89.7677L225.681 89.7306C225.681 89.7306 226.296 89.5139 227.142 89.2872C230.985 88.2575 231.494 88.8984 231.673 89.0835C231.673 89.0835 231.989 89.4909 231.829 90.052C231.652 90.7469 230.94 91.378 229.669 91.9517L229.465 92.0583L229.447 92.089ZM229.485 91.0687L229.674 91.4843C230.914 90.8929 231.281 90.3283 231.372 89.993C231.464 89.6576 231.296 89.4176 231.296 89.4176C231.067 89.1423 229.858 89.0777 227.248 89.7771C226.571 89.9584 226.046 90.1251 225.883 90.1946C225.806 90.293 225.658 90.514 225.679 90.6896C225.731 90.883 225.969 91.0003 226.201 91.0936C226.456 91.0771 227.791 91.0304 228.975 90.7131C229.289 90.6289 229.579 90.5512 229.801 90.4139L230.228 90.17L230.459 90.5485C230.327 90.6357 230.171 90.7294 229.984 90.8053L229.485 91.0687Z" fill="black"/>
<path d="M226.099 90.8102C226.099 90.8102 225.85 90.4623 225.95 90.2543C225.95 90.2543 226.464 89.754 226.82 90.0211C226.82 90.0211 227.232 90.2995 227.014 90.7462C227.014 90.7462 226.86 90.943 226.099 90.8102Z" fill="white"/>
<path d="M226.854 90.9188C226.66 90.9706 226.399 90.9628 226.046 90.902L225.998 90.9149L225.985 90.8666C225.972 90.8183 225.693 90.4527 225.804 90.1899C225.804 90.1899 226.048 89.943 226.338 89.8653C226.507 89.8199 226.672 89.8536 226.801 89.9485C226.961 90.0612 227.233 90.4025 227.028 90.7944C227.01 90.8251 226.95 90.8928 226.805 90.9317L226.854 90.9188ZM226.152 90.7181C226.67 90.8126 226.874 90.706 226.899 90.6995C227.063 90.3447 226.75 90.1436 226.743 90.1194C226.651 90.0664 226.566 90.0374 226.445 90.0698C226.252 90.1216 226.084 90.2701 226.018 90.3137C225.971 90.4298 226.096 90.6037 226.128 90.7246L226.152 90.7181Z" fill="black"/>
<path d="M231.348 92.9009C231.555 93.6743 230.074 94.7189 228.068 95.2564C226.061 95.7939 224.25 95.6059 224.049 94.8567C223.848 94.1074 225.323 93.0386 227.329 92.5011C229.335 91.9636 231.147 92.1516 231.348 92.9009Z" fill="#F50032"/>
<path d="M228.113 95.4255C225.986 95.9954 224.113 95.772 223.88 94.9019C223.646 94.0318 225.133 92.9082 227.284 92.3318C229.435 91.7554 231.284 91.9853 231.517 92.8554C231.75 93.7255 230.264 94.8491 228.113 95.4255ZM227.375 92.6702C225.32 93.2207 224.045 94.2618 224.2 94.8418C224.356 95.4219 225.957 95.6924 228.035 95.1354C230.114 94.5785 231.341 93.5503 231.185 92.9703C231.03 92.3902 229.429 92.1197 227.375 92.6702Z" fill="black"/>
<path d="M231.589 93.5098C231.796 94.2832 230.29 95.3343 228.212 95.8912C226.133 96.4481 224.297 96.2666 224.096 95.5174C223.895 94.7681 225.395 93.6929 227.473 93.1359C229.552 92.579 231.388 92.7605 231.589 93.5098Z" fill="#F50032"/>
<path d="M228.264 96.0844C226.04 96.6803 224.191 96.4504 223.958 95.5803C223.699 94.6135 225.526 93.5024 227.435 92.9908C229.344 92.4792 231.482 92.5282 231.741 93.495C231.98 94.3892 230.488 95.4886 228.264 96.0844ZM227.519 93.305C225.416 93.8684 224.117 94.916 224.272 95.4961C224.428 96.0761 226.077 96.3337 228.18 95.7702C230.282 95.2068 231.582 94.1592 231.427 93.5792C231.271 92.9991 229.622 92.7416 227.519 93.305Z" fill="black"/>
<path d="M224.615 92.8138C224.615 92.8138 222.672 93.1014 222.312 91.5658C222.312 91.5658 218.945 88.7637 221.136 86.5964C223.327 84.4292 225.023 86.0212 226.384 87.9102C226.384 87.9102 225.804 89.5162 223.048 87.3533" fill="white"/>
<path d="M224.643 93.0135C223.923 93.1288 222.482 92.971 222.132 91.6658C221.83 91.4099 220.276 89.9612 220.207 88.3479C220.171 87.6323 220.439 86.9904 220.994 86.4531C221.795 85.6688 222.602 85.2971 223.398 85.3687C224.699 85.4864 225.758 86.731 226.534 87.7923L226.56 87.8889L226.579 87.9615C226.579 87.9615 226.4 88.45 225.85 88.6232C225.125 88.8174 224.148 88.4576 222.936 87.5129L223.186 87.187C224.563 88.2685 225.336 88.3465 225.746 88.2365C225.988 88.1717 226.125 88.0055 226.178 87.9136C225.452 86.9425 224.511 85.8476 223.398 85.7571C222.712 85.708 222.043 86.0166 221.303 86.7331C220.831 87.1963 220.585 87.7285 220.619 88.3409C220.676 89.9059 222.443 91.3754 222.449 91.3995L222.511 91.4349L222.53 91.5074C222.838 92.8497 224.533 92.6026 224.612 92.6074L224.667 93.007L224.643 93.0135Z" fill="black"/>
<path d="M225.282 86.5994L224.807 87.2447C224.807 87.2447 225.229 88.1419 225.903 87.469L225.282 86.5994Z" fill="white"/>
<path d="M225.575 87.7902C225.043 87.9327 224.717 87.2948 224.71 87.2706L224.697 87.2223L225.278 86.3931L226.031 87.4608L225.971 87.5286C225.828 87.6706 225.713 87.7272 225.568 87.766L225.575 87.7902ZM224.941 87.2607C225.028 87.3927 225.24 87.6987 225.53 87.621C225.53 87.621 225.699 87.5757 225.776 87.4773L225.279 86.7816L224.941 87.2607Z" fill="black"/>
<path d="M182.643 88.0512C182.643 88.0512 182.406 88.037 182.332 87.9532L181.872 87.2994C181.785 87.1673 181.818 87.0029 181.95 86.9157C182.083 86.8285 182.24 86.838 182.334 86.9942L182.794 87.6481C182.881 87.7801 182.872 87.9381 182.716 88.0318C182.692 88.0382 182.643 88.0512 182.619 88.0577L182.643 88.0512Z" fill="black"/>
<path d="M178.39 88.5173L177.949 87.936C177.949 87.936 179.172 87.3752 179.938 87.8176C179.938 87.8176 180.789 87.9004 182.378 87.4488C182.378 87.4488 180.947 88.5836 179.286 88.3809C179.286 88.3809 178.625 88.4284 178.414 88.5109L178.39 88.5173Z" fill="black"/>
<path d="M177.475 78.1416C180.925 80.0925 182.792 76.7168 182.792 76.7168C179.343 74.7658 177.475 78.1416 177.475 78.1416Z" fill="white"/>
<path d="M180.417 78.778C179.475 79.0306 178.446 78.8658 177.404 78.2642L177.282 78.1934L177.353 78.0709C177.353 78.0709 178.224 76.4903 179.868 76.0499C180.81 75.7973 181.839 75.9621 182.881 76.5637L183.003 76.6344L182.939 76.7812C182.939 76.7812 182.067 78.3618 180.424 78.8022L180.417 78.778ZM177.693 78.0833C178.623 78.5593 179.518 78.7081 180.34 78.488C181.572 78.1577 182.332 77.1252 182.568 76.751C181.638 76.275 180.767 76.1197 179.946 76.3399C178.713 76.6702 177.953 77.7027 177.717 78.0769L177.693 78.0833Z" fill="black"/>
<path d="M181.264 77.1006C181.438 77.7532 181.067 78.3967 180.439 78.5651C179.81 78.7335 179.167 78.3619 178.968 77.7158C178.793 77.0633 179.164 76.4197 179.793 76.2513C180.421 76.083 181.089 76.448 181.257 77.0764L181.264 77.1006Z" fill="white"/>
<path d="M180.484 78.7343C179.759 78.9285 179.023 78.5039 178.829 77.7788C178.635 77.0538 179.059 76.3183 179.784 76.124C180.509 75.9297 181.245 76.3543 181.439 77.0794C181.536 77.4419 181.475 77.795 181.298 78.1015C181.122 78.4079 180.822 78.6436 180.484 78.7343ZM179.862 76.414C179.306 76.563 178.994 77.1387 179.143 77.6946C179.292 78.2505 179.868 78.5625 180.399 78.4201C180.665 78.3488 180.881 78.1874 181.023 77.9422C181.164 77.6971 181.196 77.4295 181.125 77.1636C180.976 76.6077 180.424 76.2892 179.868 76.4382L179.862 76.414Z" fill="black"/>
<path d="M180.666 77.2867C180.75 77.6009 180.573 77.9073 180.259 77.9915C179.969 78.0692 179.662 77.8923 179.554 77.5846C179.476 77.2945 179.647 76.9639 179.937 76.8862C180.251 76.802 180.557 76.979 180.642 77.2932L180.666 77.2867Z" fill="black"/>
<path d="M182.606 74.28C182.606 74.28 182.606 74.28 182.527 74.2753C182.479 74.2882 182.417 74.2528 182.332 74.2239C182.167 74.1903 181.9 74.1583 181.584 74.1394C181.426 74.1299 181.268 74.1204 181.086 74.1174C180.904 74.1144 180.722 74.1114 180.546 74.1326C180.364 74.1296 180.17 74.1814 179.971 74.209C179.777 74.2608 179.584 74.3126 179.391 74.3644C179.197 74.4162 179.004 74.4681 178.848 74.5617C178.751 74.5876 178.685 74.6312 178.595 74.6813C178.504 74.7314 178.438 74.775 178.348 74.825C178.276 74.8445 178.192 74.9187 178.126 74.9623C178.06 75.0059 178 75.0737 177.934 75.1173C177.868 75.1609 177.809 75.2286 177.743 75.2722C177.683 75.34 177.641 75.3771 177.582 75.4449C177.48 75.5498 177.372 75.6305 177.319 75.7224C177.242 75.8208 177.183 75.8886 177.154 75.9741C177.059 76.1031 176.999 76.1709 176.999 76.1709L176.964 76.2322C176.792 76.4597 176.489 76.489 176.268 76.341C176.04 76.1688 176.011 75.8658 176.159 75.6448C176.159 75.6448 176.159 75.6448 176.201 75.6077C176.201 75.6077 176.278 75.5093 176.421 75.3673C176.505 75.2931 176.582 75.1946 176.659 75.0962C176.761 74.9913 176.893 74.9041 177.012 74.7686C177.078 74.725 177.138 74.6573 177.228 74.6072C177.318 74.5571 177.384 74.5135 177.468 74.4393C177.564 74.4134 177.648 74.3391 177.732 74.2649C177.829 74.239 177.912 74.1647 178.002 74.1147C178.093 74.0646 178.183 74.0145 178.304 73.9821C178.4 73.9562 178.521 73.9238 178.618 73.8979C178.835 73.8397 179.053 73.7814 179.271 73.7231C179.488 73.6648 179.718 73.6548 179.942 73.6207C180.149 73.6173 180.373 73.5831 180.586 73.6038C180.792 73.6004 180.981 73.6275 181.163 73.6306C181.351 73.6577 181.54 73.6849 181.698 73.6944C182.02 73.7375 182.277 73.8242 182.472 73.8756C182.557 73.9045 182.643 73.9334 182.697 73.9446C182.752 73.9558 182.783 73.9735 182.783 73.9735C182.868 74.0025 182.918 74.0927 182.896 74.2023C182.867 74.2877 182.777 74.3378 182.691 74.3089L182.606 74.28Z" fill="black"/>
<path d="M183.656 76.071C183.656 76.071 183.583 76.0905 183.553 76.0728C179.123 74.3325 177.207 77.7212 177.196 77.776C177.167 77.8614 177.071 77.8874 176.979 77.8343C176.893 77.8054 176.867 77.7087 176.92 77.6168C176.914 77.5926 178.989 73.9281 183.664 75.8099C183.749 75.8388 183.799 75.929 183.746 76.021C183.735 76.0758 183.693 76.1129 183.645 76.1259L183.656 76.071Z" fill="black"/>
<path d="M184.49 76.9613C184.49 76.9613 184.321 77.0067 184.2 77.0391L184.055 77.0779L183.904 77.0926C183.855 77.1056 183.807 77.1185 183.776 77.1008C183.728 77.1138 183.68 77.1267 183.618 77.0913C183.515 77.0931 183.43 77.0642 183.327 77.0659C183.217 77.0435 183.132 77.0145 183.053 77.0098C182.943 76.9874 182.857 76.9585 182.772 76.9295C182.687 76.9006 182.595 76.8476 182.509 76.8187C182.417 76.7656 182.356 76.7302 182.258 76.6529C182.258 76.6529 182.049 76.5533 181.94 76.5308C181.824 76.4842 181.714 76.4618 181.58 76.4458C181.471 76.4234 181.337 76.4074 181.234 76.4092C181.1 76.3932 180.997 76.3949 180.869 76.4032L180.687 76.4002L180.518 76.4455C180.518 76.4455 180.391 76.4537 180.336 76.4425L180.167 76.4878C180.167 76.4878 179.925 76.5526 179.828 76.5785C179.708 76.6109 179.611 76.6368 179.497 76.6933L179.178 76.8565C179.178 76.8565 178.98 76.9873 178.896 77.0615L178.74 77.1552C178.74 77.1552 178.656 77.2294 178.59 77.273L178.314 77.5022C178.314 77.5022 178.129 77.6814 178.046 77.7556L177.777 78.009C177.622 78.2058 177.468 78.4026 177.283 78.5818C177.283 78.5818 177.12 78.6513 177.052 78.5917C176.984 78.5322 176.989 78.4532 177 78.3984C177.148 78.1774 177.266 77.9387 177.414 77.7177C177.491 77.6193 177.592 77.5144 177.663 77.3918C177.74 77.2934 177.842 77.1885 177.919 77.0901L178.206 76.8061C178.206 76.8061 178.307 76.7012 178.349 76.6641L178.523 76.5397C178.631 76.459 178.739 76.3783 178.847 76.2976L179.207 76.0973C179.322 76.0407 179.467 76.0019 179.605 75.9389C179.75 75.9 179.871 75.8676 180.016 75.8288L180.209 75.777C180.209 75.777 180.343 75.7929 180.422 75.7977L180.629 75.7942L180.841 75.8149C180.975 75.8308 181.133 75.8403 181.249 75.8869C181.383 75.9029 181.523 75.943 181.639 75.9896C181.756 76.0362 181.896 76.0763 182.018 76.1471C182.141 76.2179 182.257 76.2645 182.386 76.3594C182.386 76.3594 182.515 76.4544 182.607 76.5075C182.693 76.5364 182.76 76.5959 182.846 76.6248C182.993 76.6891 183.163 76.7469 183.328 76.7806C183.413 76.8095 183.492 76.8142 183.596 76.8125C183.644 76.7996 183.668 76.7931 183.723 76.8043C183.771 76.7914 183.82 76.7784 183.844 76.7719L183.965 76.7395L184.085 76.7072C184.158 76.6877 184.255 76.6618 184.351 76.6359C184.351 76.6359 184.533 76.6389 184.559 76.7356C184.585 76.8323 184.556 76.9177 184.46 76.9436L184.49 76.9613Z" fill="black"/>
<path d="M178.261 78.6564C177.814 78.0509 177.834 77.4496 177.852 77.419L178.168 77.4379C178.168 77.4379 178.152 77.9602 178.519 78.4578L178.261 78.6564Z" fill="black"/>
<path d="M180.264 80.1401C180.264 80.1401 180.264 80.1401 180.216 80.1531C178.902 79.987 177.362 78.975 177.294 78.9155C177.233 78.8801 177.238 78.8011 177.255 78.7705C177.291 78.7092 177.363 78.6898 177.4 78.7316C177.4 78.7316 178.947 79.7678 180.206 79.9226C180.255 79.9096 180.329 79.9934 180.318 80.0482C180.33 80.0965 180.264 80.1401 180.24 80.1466L180.264 80.1401Z" fill="black"/>
<path d="M186.814 68.2308C186.814 68.2308 186.602 73.3388 190.708 76.7719C194.987 80.3659 194.746 82.6581 194.746 82.6581C194.746 82.6581 192.015 83.3899 192.253 85.6317C192.558 88.2182 195.18 91.8158 199.762 88.9043C199.762 88.9043 202.518 86.4301 199.67 80.9244C196.798 75.4252 190.473 71.0583 191.285 67.0327L186.838 68.2243L186.814 68.2308Z" fill="#F50032"/>
<path d="M197.815 90.0477C196.51 90.3974 195.292 90.2054 194.279 89.5184C192.855 88.553 192.195 86.8647 192.06 85.6834C191.813 83.5996 193.959 82.7138 194.556 82.5277C194.523 82.0184 194.149 79.9429 190.602 76.9556C186.459 73.4807 186.651 68.3002 186.662 68.2454L186.672 68.0874L191.578 66.7728L191.511 67.1017C191.053 69.4522 193.122 71.9545 195.525 74.8335C197.117 76.7125 198.734 78.6883 199.888 80.866C202.81 86.4555 200.073 89.0021 199.941 89.0893L199.917 89.0958C199.215 89.5689 198.522 89.884 197.845 90.0654L197.815 90.0477ZM187.011 68.3852C187.007 69.2411 187.22 73.6136 190.821 76.6121C195.137 80.248 194.934 82.5821 194.935 82.6852L194.919 82.819L194.798 82.8514C194.798 82.8514 192.219 83.5685 192.46 85.6281C192.593 86.7062 193.19 88.2561 194.492 89.1507C195.892 90.1225 197.692 89.9769 199.638 88.7303C199.847 88.5447 202.162 86.1629 199.483 81.0003C198.367 78.8644 196.756 76.9128 195.189 75.0273C192.823 72.1901 190.76 69.7121 191.04 67.2795L187.028 68.3546L187.011 68.3852Z" fill="black"/>
<path d="M195.784 86.6283C195.784 86.6283 195.809 86.6218 195.881 86.6024C195.929 86.5894 196.033 86.5877 196.136 86.586C196.232 86.5601 196.39 86.5695 196.542 86.5548C196.687 86.516 196.863 86.4948 197.025 86.4253C197.122 86.3994 197.194 86.38 197.291 86.3541C197.381 86.304 197.447 86.2604 197.538 86.2103C197.694 86.1167 197.806 85.957 197.919 85.7973L197.983 85.6505C197.983 85.6505 198.006 85.5409 198.024 85.5102L198.052 85.4248L198.039 85.3764L198.06 85.1637C198.06 85.1637 198.052 85.0363 198.063 84.9815C198.05 84.9332 198.061 84.8784 198.073 84.8236C198.047 84.7269 198.063 84.5931 198.03 84.4722C197.972 84.2547 197.89 84.0437 197.759 83.8456C197.628 83.6475 197.462 83.5107 197.271 83.3803C197.18 83.3273 197.081 83.25 196.996 83.2211C196.88 83.1745 196.788 83.1214 196.702 83.0925C196.593 83.0701 196.501 83.017 196.391 82.9946C196.281 82.9721 196.196 82.9432 196.093 82.945C195.904 82.9178 195.74 82.8841 195.558 82.8811C195.4 82.8717 195.266 82.8557 195.138 82.8639C194.908 82.8739 194.774 82.8579 194.774 82.8579C194.774 82.8579 194.566 82.7582 194.564 82.6551C194.563 82.5519 194.64 82.4535 194.743 82.4518C194.743 82.4518 194.888 82.4129 195.136 82.3723C195.257 82.3399 195.415 82.3494 195.591 82.3282C195.76 82.2829 195.955 82.3343 196.185 82.3243C196.295 82.3467 196.398 82.345 196.532 82.361C196.642 82.3834 196.782 82.4235 196.892 82.446C197.025 82.4619 197.148 82.5327 197.264 82.5793C197.404 82.6194 197.527 82.6902 197.65 82.761C197.901 82.9267 198.135 83.123 198.334 83.3807C198.532 83.6383 198.689 83.9331 198.749 84.2538C198.788 84.3988 198.809 84.5745 198.824 84.726C198.814 84.8839 198.835 85.0596 198.826 85.2175L198.799 85.4062L198.812 85.4545L198.794 85.4851L198.807 85.5335L198.784 85.6431C198.784 85.6431 198.751 85.8076 198.715 85.8688C198.686 85.9543 198.651 86.0156 198.622 86.1011C198.463 86.3769 198.242 86.6173 197.996 86.761C197.756 86.9289 197.49 87.0002 197.266 87.0343C197.049 87.0926 196.842 87.096 196.636 87.0995C196.454 87.0965 196.296 87.087 196.186 87.0646C196.053 87.0486 195.967 87.0197 195.888 87.015C195.803 86.9861 195.778 86.9926 195.778 86.9926C195.669 86.9701 195.612 86.8558 195.635 86.7461C195.664 86.6607 195.747 86.5864 195.85 86.5847L195.784 86.6283Z" fill="black"/>
<path d="M227.805 82.8667L221.956 84.4339L215.57 60.6031L217.035 53.8898L221.419 59.0359L227.805 82.8667ZM222.363 83.729L227.1 82.4597L220.902 59.3298L217.354 55.1773L216.165 60.5992L222.363 83.729Z" fill="black"/>
<path d="M217.276 54.4989L217.083 54.5507L224.802 83.3603L224.996 83.3085L217.276 54.4989Z" fill="black"/>
<path d="M216.814 56.2545L216.621 56.3063L224.004 83.8592L224.197 83.8074L216.814 56.2545Z" fill="black"/>
<path d="M218.558 55.9947L218.364 56.0465L225.773 83.696L225.966 83.6442L218.558 55.9947Z" fill="black"/>
</g>
</g>
<g filter="url(#filter1_d_1_714)">
<g clip-path="url(#clip2_1_714)">
<rect x="168.014" y="31.0985" width="98.1413" height="135.967" rx="8.17844" fill="white"/>
<mask id="mask2_1_714" style="mask-type:alpha" maskUnits="userSpaceOnUse" x="168" y="31" width="99" height="137">
<rect x="168.014" y="31.0985" width="98.1413" height="135.967" fill="#D9D9D9"/>
</mask>
<g mask="url(#mask2_1_714)">
<path d="M181.047 48.0056L180.325 45.709H176.336L175.57 48.0056H172.994L176.542 37.7007H180.532L183.991 48.0056H181.047ZM176.94 43.8983H179.751L178.397 39.5556L176.94 43.8983Z" fill="#F50032"/>
<path d="M182.469 60.4661C181.315 60.461 180.284 60.9954 179.611 61.8299C178.947 60.9873 177.921 60.4441 176.767 60.439C174.755 60.4292 173.116 62.0531 173.105 64.0674C173.096 65.8496 178.16 70.2298 179.328 71.2159C179.468 71.3342 179.665 71.3351 179.806 71.2182C180.983 70.243 186.088 65.9103 186.097 64.1302C186.107 62.1183 184.483 60.4766 182.469 60.4661Z" fill="#F50032"/>
<path fill-rule="evenodd" clip-rule="evenodd" d="M239.349 114.862C240.858 112.788 241.748 110.235 241.748 107.474C241.748 100.533 236.121 94.9062 229.18 94.9062C223.533 94.9062 218.755 98.631 217.171 103.758C215.586 98.631 210.808 94.9062 205.161 94.9062C198.22 94.9062 192.593 100.533 192.593 107.474C192.593 110.235 193.483 112.789 194.992 114.862C195.365 115.438 195.781 115.989 196.238 116.51L215.326 138.283C216.303 139.398 218.038 139.398 219.016 138.283L238.104 116.51C238.561 115.989 238.976 115.438 239.349 114.862Z" fill="#F50032"/>
<path d="M239.349 114.862L236.774 113.196L236.82 113.125L236.869 113.057L239.349 114.862ZM217.171 103.758L220.101 104.664L217.171 114.143L214.24 104.664L217.171 103.758ZM194.992 114.862L197.472 113.058L197.521 113.125L197.567 113.196L194.992 114.862ZM196.238 116.51L198.544 114.489L198.544 114.489L196.238 116.51ZM215.326 138.283L217.632 136.261L217.632 136.261L215.326 138.283ZM219.016 138.283L221.322 140.305L221.322 140.305L219.016 138.283ZM238.104 116.51L240.41 118.532L240.41 118.532L238.104 116.51ZM236.869 113.057C238.01 111.49 238.682 109.565 238.682 107.474H244.815C244.815 110.905 243.707 114.086 241.829 116.667L236.869 113.057ZM238.682 107.474C238.682 102.227 234.428 97.9732 229.18 97.9732V91.8393C237.815 91.8393 244.815 98.8394 244.815 107.474H238.682ZM229.18 97.9732C224.916 97.9732 221.3 100.785 220.101 104.664L214.24 102.852C216.211 96.4768 222.15 91.8393 229.18 91.8393V97.9732ZM214.24 104.664C213.042 100.785 209.426 97.9732 205.161 97.9732V91.8393C212.191 91.8393 218.13 96.4768 220.101 102.852L214.24 104.664ZM205.161 97.9732C199.914 97.9732 195.66 102.227 195.66 107.474H189.526C189.526 98.8394 196.526 91.8393 205.161 91.8393V97.9732ZM195.66 107.474C195.66 109.566 196.332 111.491 197.472 113.058L192.512 116.667C190.634 114.087 189.526 110.905 189.526 107.474H195.66ZM197.567 113.196C197.859 113.648 198.185 114.08 198.544 114.489L193.932 118.532C193.376 117.899 192.871 117.229 192.417 116.529L197.567 113.196ZM198.544 114.489L217.632 136.261L213.02 140.305L193.932 118.532L198.544 114.489ZM217.632 136.261C217.387 135.982 216.954 135.982 216.709 136.261L221.322 140.305C219.123 142.813 215.219 142.813 213.02 140.305L217.632 136.261ZM216.709 136.261L235.797 114.489L240.41 118.532L221.322 140.305L216.709 136.261ZM235.797 114.489C236.156 114.08 236.482 113.647 236.774 113.196L241.924 116.528C241.471 117.229 240.965 117.899 240.41 118.532L235.797 114.489Z" fill="#F50032"/>
<path fill-rule="evenodd" clip-rule="evenodd" d="M239.349 114.862C240.858 112.788 241.748 110.235 241.748 107.474C241.748 100.533 236.121 94.9062 229.18 94.9062C223.533 94.9062 218.755 98.631 217.171 103.758C215.586 98.631 210.808 94.9062 205.161 94.9062C198.22 94.9062 192.593 100.533 192.593 107.474C192.593 110.235 193.483 112.789 194.992 114.862C195.365 115.438 195.781 115.989 196.238 116.51L215.326 138.283C216.303 139.398 218.038 139.398 219.016 138.283L238.104 116.51C238.561 115.989 238.976 115.438 239.349 114.862Z" fill="#F50032"/>
<path d="M239.349 114.862L237.804 113.862L237.832 113.82L237.861 113.779L239.349 114.862ZM217.171 103.758L218.929 104.301L217.171 109.989L215.413 104.301L217.171 103.758ZM194.992 114.862L196.48 113.779L196.51 113.82L196.537 113.862L194.992 114.862ZM196.238 116.51L197.621 115.297L197.621 115.297L196.238 116.51ZM215.326 138.283L216.709 137.07L216.709 137.07L215.326 138.283ZM219.016 138.283L220.399 139.496L220.399 139.496L219.016 138.283ZM238.104 116.51L239.487 117.724L239.487 117.724L238.104 116.51ZM237.861 113.779C239.149 112.01 239.908 109.833 239.908 107.474H243.589C243.589 110.637 242.567 113.567 240.837 115.945L237.861 113.779ZM239.908 107.474C239.908 101.55 235.105 96.7464 229.18 96.7464V93.0661C237.138 93.0661 243.589 99.517 243.589 107.474H239.908ZM229.18 96.7464C224.362 96.7464 220.282 99.9235 218.929 104.301L215.413 103.214C217.229 97.3385 222.703 93.0661 229.18 93.0661V96.7464ZM215.413 104.301C214.059 99.9235 209.979 96.7464 205.161 96.7464V93.0661C211.638 93.0661 217.112 97.3385 218.929 103.214L215.413 104.301ZM205.161 96.7464C199.236 96.7464 194.433 101.55 194.433 107.474H190.753C190.753 99.517 197.203 93.0661 205.161 93.0661V96.7464ZM194.433 107.474C194.433 109.834 195.192 112.01 196.48 113.779L193.504 115.945C191.774 113.567 190.753 110.637 190.753 107.474H194.433ZM196.537 113.862C196.861 114.364 197.223 114.844 197.621 115.297L194.854 117.724C194.338 117.135 193.868 116.512 193.447 115.862L196.537 113.862ZM197.621 115.297L216.709 137.07L213.942 139.496L194.854 117.724L197.621 115.297ZM216.709 137.07C216.954 137.348 217.387 137.348 217.632 137.07L220.399 139.496C218.689 141.447 215.652 141.447 213.942 139.496L216.709 137.07ZM217.632 137.07L236.72 115.297L239.487 117.724L220.399 139.496L217.632 137.07ZM236.72 115.297C237.118 114.843 237.48 114.364 237.804 113.862L240.894 115.862C240.473 116.512 240.003 117.135 239.487 117.724L236.72 115.297Z" fill="white"/>
<path fill-rule="evenodd" clip-rule="evenodd" d="M239.349 114.838C240.858 112.764 241.748 110.211 241.748 107.45C241.748 100.509 236.121 94.8818 229.18 94.8818C223.533 94.8818 218.755 98.6065 217.171 103.733C215.586 98.6065 210.808 94.8818 205.161 94.8818C198.22 94.8818 192.593 100.509 192.593 107.45C192.593 110.211 193.483 112.764 194.992 114.838C195.365 115.414 195.781 115.965 196.238 116.486L215.326 138.258C216.303 139.373 218.038 139.373 219.016 138.258L238.104 116.486C238.561 115.965 238.976 115.413 239.349 114.838Z" fill="#F50032"/>
</g>
</g>
</g>
</g>
</g>
<defs>
<filter id="filter0_b_1_714" x="-89.5" y="-90" width="600" height="380" filterUnits="userSpaceOnUse" color-interpolation-filters="sRGB">
<feFlood flood-opacity="0" result="BackgroundImageFix"/>
<feGaussianBlur in="BackgroundImageFix" stdDeviation="45"/>
<feComposite in2="SourceAlpha" operator="in" result="effect1_backgroundBlur_1_714"/>
<feBlend mode="normal" in="SourceGraphic" in2="effect1_backgroundBlur_1_714" result="shape"/>
</filter>
<filter id="filter1_d_1_714" x="139.973" y="7.73153" width="154.222" height="192.047" filterUnits="userSpaceOnUse" color-interpolation-filters="sRGB">
<feFlood flood-opacity="0" result="BackgroundImageFix"/>
<feColorMatrix in="SourceAlpha" type="matrix" values="0 0 0 0 0 0 0 0 0 0 0 0 0 0 0 0 0 0 127 0" result="hardAlpha"/>
<feOffset dy="4.6734"/>
<feGaussianBlur stdDeviation="14.0202"/>
<feComposite in2="hardAlpha" operator="out"/>
<feColorMatrix type="matrix" values="0 0 0 0 0 0 0 0 0 0 0 0 0 0 0 0 0 0 0.25 0"/>
<feBlend mode="normal" in2="BackgroundImageFix" result="effect1_dropShadow_1_714"/>
<feBlend mode="normal" in="SourceGraphic" in2="effect1_dropShadow_1_714" result="shape"/>
</filter>
<radialGradient id="paint0_radial_1_714" cx="0" cy="0" r="1" gradientUnits="userSpaceOnUse" gradientTransform="translate(210) rotate(90) scale(262.5 326.353)">
<stop stop-color="#14C57A"/>
<stop offset="1" stop-color="#097750"/>
</radialGradient>
<clipPath id="clip0_1_714">
<rect x="0.5" width="420" height="200" rx="10" fill="white"/>
</clipPath>
<clipPath id="clip1_1_714">
<rect width="420" height="262.5" fill="white" transform="translate(1 -31.25)"/>
</clipPath>
<clipPath id="clip2_1_714">
<rect x="168.014" y="31.0985" width="98.1413" height="135.967" rx="8.17844" fill="white"/>
</clipPath>
</defs>
</svg>
