<svg width="421" height="200" viewBox="0 0 421 200" fill="none" xmlns="http://www.w3.org/2000/svg">
<g filter="url(#filter0_b_1_758)">
<g clip-path="url(#clip0_1_758)">
<rect x="0.5" width="420" height="200" rx="10" fill="white" fill-opacity="0.05"/>
<rect width="420" height="262.5" transform="matrix(1 0 0 -1 1 263)" fill="white"/>
<rect width="420" height="262.5" transform="matrix(1 0 0 -1 1 263)" fill="url(#paint0_radial_1_758)"/>
<rect width="420" height="262.5" transform="matrix(1 0 0 -1 1 263)" fill="#1F6493" style="mix-blend-mode:multiply"/>
<circle cx="181.6" cy="54.5612" r="4.2" fill="#057D77"/>
<circle cx="211" cy="54.5612" r="4.2" fill="#057D77"/>
<circle cx="240.4" cy="54.5612" r="4.2" fill="#057D77"/>
<circle cx="166.9" cy="73.4612" r="4.2" fill="#057D77"/>
<circle cx="196.3" cy="73.4612" r="4.2" fill="#057D77"/>
<circle cx="225.7" cy="73.4612" r="4.2" fill="#057D77"/>
<circle cx="255.1" cy="73.4612" r="4.2" fill="#057D77"/>
<circle cx="152.2" cy="92.3613" r="4.2" fill="#057D77"/>
<circle cx="181.6" cy="92.3613" r="4.2" fill="#057D77"/>
<circle cx="181.6" cy="92.3613" r="5.5125" stroke="#057D77" stroke-opacity="0.5" stroke-width="2.625"/>
<circle cx="211" cy="92.3613" r="4.2" fill="#057D77"/>
<circle cx="240.4" cy="92.3613" r="4.2" fill="#057D77"/>
<circle cx="269.8" cy="92.3613" r="4.2" fill="#057D77"/>
<circle cx="137.5" cy="111.261" r="4.2" fill="#057D77"/>
<circle cx="166.9" cy="111.261" r="4.2" fill="#057D77"/>
<circle cx="196.3" cy="111.261" r="4.2" fill="#057D77"/>
<circle cx="225.7" cy="111.261" r="4.2" fill="#057D77"/>
<circle cx="255.1" cy="111.261" r="4.2" fill="#057D77"/>
<circle cx="284.5" cy="111.261" r="4.2" fill="#057D77"/>
<circle cx="122.8" cy="130.161" r="4.2" fill="#057D77"/>
<circle cx="152.2" cy="130.161" r="4.2" fill="#057D77"/>
<circle cx="181.6" cy="130.161" r="4.2" fill="#057D77"/>
<circle cx="211" cy="130.161" r="4.2" fill="#057D77"/>
<circle cx="240.4" cy="130.161" r="4.2" fill="#057D77"/>
<circle cx="269.8" cy="130.161" r="4.2" fill="#057D77"/>
<circle cx="299.2" cy="130.161" r="4.2" fill="#057D77"/>
<circle cx="108.1" cy="149.061" r="4.2" fill="#057D77"/>
<circle cx="137.5" cy="149.061" r="4.2" fill="#057D77"/>
<circle cx="166.9" cy="149.061" r="4.2" fill="#057D77"/>
<circle cx="196.3" cy="149.061" r="4.2" fill="#057D77"/>
<circle cx="225.7" cy="149.061" r="4.2" fill="#057D77"/>
<circle cx="255.1" cy="149.061" r="4.2" fill="#057D77"/>
<circle cx="284.5" cy="149.061" r="4.2" fill="#057D77"/>
<circle cx="313.9" cy="149.061" r="4.2" fill="#057D77"/>
<circle cx="93.4" cy="167.961" r="4.2" fill="#057D77"/>
<circle cx="122.8" cy="167.961" r="4.2" fill="#057D77"/>
<circle cx="152.2" cy="167.961" r="4.2" fill="#057D77"/>
<circle cx="181.6" cy="167.961" r="4.2" fill="#057D77"/>
<circle cx="211" cy="167.961" r="4.2" fill="#057D77"/>
<circle cx="240.4" cy="167.961" r="4.2" fill="#057D77"/>
<circle cx="269.8" cy="167.961" r="4.2" fill="#057D77"/>
<circle cx="299.2" cy="167.961" r="4.2" fill="#057D77"/>
<circle cx="328.6" cy="167.961" r="4.2" fill="#057D77"/>
<circle cx="78.7" cy="186.861" r="4.2" fill="#057D77"/>
<circle cx="108.1" cy="186.861" r="4.2" fill="#057D77"/>
<circle cx="137.5" cy="186.861" r="4.2" fill="#057D77"/>
<circle cx="166.9" cy="186.861" r="4.2" fill="#057D77"/>
<circle cx="196.3" cy="186.861" r="4.2" fill="#057D77"/>
<circle cx="225.7" cy="186.861" r="4.2" fill="#057D77"/>
<circle cx="255.1" cy="186.861" r="4.2" fill="#057D77"/>
<circle cx="284.5" cy="186.861" r="4.2" fill="#057D77"/>
<circle cx="313.9" cy="186.861" r="4.2" fill="#057D77"/>
<circle cx="343.3" cy="186.861" r="4.2" fill="#057D77"/>
<path d="M210.535 189.434L220.5 186.127L229.431 213.04C230.344 215.792 228.854 218.763 226.102 219.676C223.35 220.589 220.379 219.099 219.466 216.347L210.535 189.434Z" fill="url(#paint1_linear_1_758)"/>
<path d="M207.561 116.809L215.95 110.495L233.002 133.152C234.745 135.469 234.281 138.76 231.964 140.504C229.647 142.248 226.356 141.783 224.612 139.466L207.561 116.809Z" fill="url(#paint2_linear_1_758)"/>
<g filter="url(#filter1_d_1_758)">
<circle cx="228.807" cy="136.309" r="5.25" transform="rotate(-36.965 228.807 136.309)" fill="white"/>
</g>
<path d="M205.585 10L216.085 10V38.3565C216.085 41.256 213.734 43.6065 210.835 43.6065C207.935 43.6065 205.585 41.256 205.585 38.3565V10Z" fill="url(#paint3_linear_1_758)"/>
<g filter="url(#filter2_d_1_758)">
<circle cx="210.835" cy="38.3564" r="5.25" fill="white"/>
</g>
<path d="M184.54 54.9943L194.128 59.2743L182.569 85.168C181.387 87.8157 178.283 89.0039 175.635 87.822C172.988 86.6401 171.799 83.5356 172.981 80.888L184.54 54.9943Z" fill="url(#paint4_linear_1_758)"/>
<g filter="url(#filter3_d_1_758)">
<circle cx="177.775" cy="83.0279" r="5.25" transform="rotate(24.0556 177.775 83.0279)" fill="white"/>
</g>
</g>
</g>
<defs>
<filter id="filter0_b_1_758" x="-89.5" y="-90" width="600" height="380" filterUnits="userSpaceOnUse" color-interpolation-filters="sRGB">
<feFlood flood-opacity="0" result="BackgroundImageFix"/>
<feGaussianBlur in="BackgroundImageFix" stdDeviation="45"/>
<feComposite in2="SourceAlpha" operator="in" result="effect1_backgroundBlur_1_758"/>
<feBlend mode="normal" in="SourceGraphic" in2="effect1_backgroundBlur_1_758" result="shape"/>
</filter>
<filter id="filter1_d_1_758" x="216.207" y="123.709" width="25.2006" height="25.2006" filterUnits="userSpaceOnUse" color-interpolation-filters="sRGB">
<feFlood flood-opacity="0" result="BackgroundImageFix"/>
<feColorMatrix in="SourceAlpha" type="matrix" values="0 0 0 0 0 0 0 0 0 0 0 0 0 0 0 0 0 0 127 0" result="hardAlpha"/>
<feOffset/>
<feGaussianBlur stdDeviation="3.675"/>
<feComposite in2="hardAlpha" operator="out"/>
<feColorMatrix type="matrix" values="0 0 0 0 1 0 0 0 0 1 0 0 0 0 1 0 0 0 1 0"/>
<feBlend mode="overlay" in2="BackgroundImageFix" result="effect1_dropShadow_1_758"/>
<feBlend mode="normal" in="SourceGraphic" in2="effect1_dropShadow_1_758" result="shape"/>
</filter>
<filter id="filter2_d_1_758" x="198.235" y="25.7564" width="25.2" height="25.2" filterUnits="userSpaceOnUse" color-interpolation-filters="sRGB">
<feFlood flood-opacity="0" result="BackgroundImageFix"/>
<feColorMatrix in="SourceAlpha" type="matrix" values="0 0 0 0 0 0 0 0 0 0 0 0 0 0 0 0 0 0 127 0" result="hardAlpha"/>
<feOffset/>
<feGaussianBlur stdDeviation="3.675"/>
<feComposite in2="hardAlpha" operator="out"/>
<feColorMatrix type="matrix" values="0 0 0 0 1 0 0 0 0 1 0 0 0 0 1 0 0 0 1 0"/>
<feBlend mode="overlay" in2="BackgroundImageFix" result="effect1_dropShadow_1_758"/>
<feBlend mode="normal" in="SourceGraphic" in2="effect1_dropShadow_1_758" result="shape"/>
</filter>
<filter id="filter3_d_1_758" x="165.174" y="70.4266" width="25.2026" height="25.2027" filterUnits="userSpaceOnUse" color-interpolation-filters="sRGB">
<feFlood flood-opacity="0" result="BackgroundImageFix"/>
<feColorMatrix in="SourceAlpha" type="matrix" values="0 0 0 0 0 0 0 0 0 0 0 0 0 0 0 0 0 0 127 0" result="hardAlpha"/>
<feOffset/>
<feGaussianBlur stdDeviation="3.675"/>
<feComposite in2="hardAlpha" operator="out"/>
<feColorMatrix type="matrix" values="0 0 0 0 1 0 0 0 0 1 0 0 0 0 1 0 0 0 1 0"/>
<feBlend mode="overlay" in2="BackgroundImageFix" result="effect1_dropShadow_1_758"/>
<feBlend mode="normal" in="SourceGraphic" in2="effect1_dropShadow_1_758" result="shape"/>
</filter>
<radialGradient id="paint0_radial_1_758" cx="0" cy="0" r="1" gradientUnits="userSpaceOnUse" gradientTransform="translate(210) rotate(90) scale(262.5 326.353)">
<stop stop-color="#14C57A"/>
<stop offset="1" stop-color="#097750"/>
</radialGradient>
<linearGradient id="paint1_linear_1_758" x1="215.518" y1="187.78" x2="226.102" y2="219.676" gradientUnits="userSpaceOnUse">
<stop stop-color="#047872" stop-opacity="0"/>
<stop offset="1" stop-color="#047872"/>
</linearGradient>
<linearGradient id="paint2_linear_1_758" x1="211.756" y1="113.652" x2="231.964" y2="140.504" gradientUnits="userSpaceOnUse">
<stop stop-color="#047872" stop-opacity="0"/>
<stop offset="1" stop-color="#047872"/>
</linearGradient>
<linearGradient id="paint3_linear_1_758" x1="210.835" y1="10" x2="210.835" y2="43.6065" gradientUnits="userSpaceOnUse">
<stop stop-color="#047872" stop-opacity="0"/>
<stop offset="1" stop-color="#047872"/>
</linearGradient>
<linearGradient id="paint4_linear_1_758" x1="189.334" y1="57.1343" x2="175.635" y2="87.822" gradientUnits="userSpaceOnUse">
<stop stop-color="#047872" stop-opacity="0"/>
<stop offset="1" stop-color="#047872"/>
</linearGradient>
<clipPath id="clip0_1_758">
<rect x="0.5" width="420" height="200" rx="10" fill="white"/>
</clipPath>
</defs>
</svg>
