<svg width="421" height="200" viewBox="0 0 421 200" fill="none" xmlns="http://www.w3.org/2000/svg">
<g filter="url(#filter0_b_1_775)">
<g clip-path="url(#clip0_1_775)">
<rect x="0.5" width="420" height="200" rx="10" fill="white" fill-opacity="0.05"/>
<g clip-path="url(#clip1_1_775)">
<rect width="420" height="262.5" transform="translate(1 -63)" fill="white"/>
<rect width="420" height="262.5" transform="translate(1 -63)" fill="url(#paint0_radial_1_775)"/>
<path opacity="0.4" d="M14.8333 -107.167V156.5C14.8333 172.608 27.8916 185.667 43.9999 185.667H336.083" stroke="white" stroke-opacity="0.2" stroke-width="4"/>
<g opacity="0.2">
<path d="M345.917 187.481C347.7 187.481 348.407 185.004 350.19 185.004V182.528C348.407 182.528 347.7 185.004 345.917 185.004V187.481Z" fill="#FBFFDD"/>
<path d="M350.193 187.481C351.976 187.481 352.683 185.004 354.466 185.004V182.528C352.683 182.528 351.976 185.004 350.193 185.004V187.481Z" fill="#FBFFDD"/>
<path d="M354.466 187.481C354.844 187.481 355.207 187.351 355.474 187.118C355.741 186.886 355.891 186.571 355.891 186.243C355.891 185.914 355.741 185.599 355.474 185.367C355.207 185.135 354.844 185.004 354.466 185.004V187.481Z" fill="#FBFFDD"/>
<path d="M363.006 182.528H365.252V187.5H363.782V183.558L362.572 187.5H361.036L359.932 183.587V187.5H358.749V182.528H361.037L361.959 185.923L363.006 182.528Z" fill="#FBFFDD"/>
<path d="M368.971 183.949H370.353L367.892 188.921H366.543L367.262 187.478L365.51 183.949H367.047L367.946 186.101L368.971 183.949Z" fill="#FBFFDD"/>
<path d="M370.318 186.343H371.87C371.887 186.733 372.131 187.003 372.606 187.003C372.924 187.003 373.145 186.889 373.145 186.697C373.145 186.43 372.838 186.35 372.296 186.2L371.552 186.001C370.791 185.789 370.4 185.447 370.4 184.932C370.4 184.235 371.143 183.838 372.451 183.838C373.725 183.838 374.468 184.239 374.567 184.967H373.145C373.13 184.818 373.048 184.679 372.916 184.582C372.784 184.485 372.614 184.437 372.442 184.449C372.107 184.449 371.951 184.582 371.951 184.725C371.951 184.96 372.296 185.053 372.769 185.181L373.52 185.386C373.946 185.5 374.697 185.748 374.697 186.444C374.697 187.14 373.946 187.616 372.532 187.616C371.217 187.613 370.449 187.166 370.318 186.343Z" fill="#FBFFDD"/>
<path d="M377.557 184.665H376.838V186.402C376.838 186.721 376.887 186.764 377.426 186.764H377.557V187.502H376.635C375.647 187.502 375.361 187.254 375.361 186.282V184.665H374.868V183.955H375.367V183.173L376.838 182.676V183.955H377.557V184.665Z" fill="#FBFFDD"/>
<path d="M382.213 185.917H379.339C379.372 186.782 379.617 186.975 380.009 186.975C380.376 186.975 380.565 186.776 380.615 186.343H382.134C382.036 187.088 381.357 187.613 380.009 187.613C378.447 187.613 377.803 186.802 377.803 185.76C377.803 184.666 378.465 183.836 380.049 183.836C381.398 183.836 382.214 184.574 382.214 185.782L382.213 185.917ZM379.378 185.277H380.636V185.256C380.636 184.66 380.343 184.474 380.04 184.474C379.607 184.474 379.402 184.836 379.378 185.277Z" fill="#FBFFDD"/>
<path d="M386.752 185.121V187.5H385.281V185.333C385.281 184.899 385.128 184.686 384.742 184.686C384.356 184.686 384.146 184.92 384.146 185.488V187.492H382.675V184.609C382.675 184.446 382.675 184.119 382.658 183.949H384.121V184.425C384.309 184.084 384.736 183.836 385.387 183.836C386.262 183.836 386.752 184.219 386.752 185.121Z" fill="#FBFFDD"/>
<path d="M390.613 186.626H393.207V187.5H389.058V182.528H390.61L390.613 186.626Z" fill="#FBFFDD"/>
<path d="M396.242 187.5V187.003C396.005 187.351 395.596 187.55 394.917 187.55C393.986 187.55 393.48 187.138 393.48 186.499C393.48 185.81 394.095 185.589 394.991 185.431L395.36 185.366C396.02 185.253 396.217 185.161 396.217 184.884C396.217 184.636 396.037 184.471 395.71 184.471C395.634 184.464 395.557 184.471 395.484 184.493C395.412 184.515 395.346 184.551 395.292 184.598C395.237 184.645 395.196 184.702 395.171 184.765C395.146 184.828 395.137 184.895 395.146 184.962H393.63C393.669 184.188 394.332 183.833 395.721 183.833C397.159 183.833 397.657 184.266 397.657 185.011V186.936C397.657 187.17 397.657 187.362 397.681 187.504L396.242 187.5ZM396.185 186.179V185.752C396.077 185.795 395.947 185.838 395.735 185.902L395.612 185.938C395.212 186.052 395.016 186.129 395.016 186.386C395.016 186.619 395.195 186.786 395.547 186.786C395.953 186.782 396.182 186.549 396.182 186.179H396.185Z" fill="#FBFFDD"/>
<path d="M402.542 185.696C402.542 186.754 401.887 187.542 400.698 187.542C400.506 187.548 400.315 187.519 400.137 187.455C399.96 187.391 399.8 187.296 399.668 187.174L399.555 187.5H398.247V182.528H399.717V184.311C399.845 184.162 400.012 184.041 400.203 183.958C400.395 183.875 400.607 183.833 400.821 183.836C402.024 183.836 402.542 184.624 402.542 185.696ZM400.931 185.696C400.931 184.908 400.679 184.581 400.295 184.581C399.853 184.581 399.681 184.908 399.681 185.696C399.681 186.335 399.851 186.797 400.295 186.797C400.765 186.802 400.936 186.335 400.936 185.696H400.931Z" fill="#FBFFDD"/>
<path d="M402.787 186.343H404.339C404.356 186.733 404.601 187.003 405.075 187.003C405.394 187.003 405.613 186.889 405.613 186.697C405.613 186.43 405.306 186.35 404.764 186.2L404.021 186.001C403.253 185.789 402.869 185.447 402.869 184.932C402.869 184.235 403.613 183.838 404.92 183.838C406.194 183.838 406.938 184.239 407.036 184.967H405.615C405.6 184.818 405.518 184.679 405.386 184.582C405.255 184.485 405.085 184.437 404.913 184.449C404.578 184.449 404.422 184.582 404.422 184.725C404.422 184.96 404.765 185.053 405.24 185.181L405.991 185.386C406.417 185.5 407.168 185.748 407.168 186.444C407.168 187.14 406.417 187.616 405.003 187.616C403.686 187.613 402.918 187.166 402.787 186.343Z" fill="#FBFFDD"/>
</g>
</g>
<g opacity="0.7">
<rect x="146" y="34" width="130" height="118" rx="10" fill="white"/>
<rect x="208.941" y="114.912" width="24" height="24" rx="1" transform="rotate(-45 208.941 114.912)" fill="#F50032"/>
<path fill-rule="evenodd" clip-rule="evenodd" d="M195.598 112.857C196.509 114.108 197.046 115.648 197.046 117.314C197.046 121.501 193.652 124.895 189.465 124.895C186.058 124.895 183.176 122.648 182.22 119.556C181.264 122.648 178.383 124.895 174.976 124.895C170.789 124.895 167.395 121.501 167.395 117.314C167.395 115.649 167.932 114.109 168.842 112.858C169.067 112.51 169.318 112.178 169.594 111.863L181.468 98.3187C181.867 97.8643 182.574 97.8643 182.972 98.3187L194.847 111.863C195.123 112.178 195.373 112.51 195.598 112.857Z" fill="black"/>
<path d="M181.788 124.162C181.98 123.828 182.461 123.828 182.654 124.162L186.551 130.912C186.743 131.245 186.503 131.662 186.118 131.662H178.323C177.939 131.662 177.698 131.245 177.89 130.912L181.788 124.162Z" fill="black"/>
<path fill-rule="evenodd" clip-rule="evenodd" d="M197.561 69.3157C198.604 67.8814 199.22 66.1154 199.22 64.2056C199.22 59.4045 195.328 55.5124 190.527 55.5124C186.621 55.5124 183.317 58.0887 182.22 61.6349C181.124 58.0887 177.82 55.5124 173.914 55.5124C169.112 55.5124 165.22 59.4045 165.22 64.2056C165.22 66.1151 165.836 67.8809 166.88 69.3151C167.138 69.7136 167.425 70.0949 167.741 70.4556L181.468 86.1128C181.867 86.5672 182.574 86.5672 182.972 86.1128L196.699 70.4556C197.015 70.0951 197.303 69.714 197.561 69.3157Z" fill="#F50032"/>
<path d="M225.728 80.2206C225.921 79.8872 226.402 79.8872 226.594 80.2206L230.491 86.9706C230.684 87.3039 230.443 87.7206 230.058 87.7206H222.264C221.879 87.7206 221.639 87.3039 221.831 86.9706L225.728 80.2206Z" fill="black"/>
<path fill-rule="evenodd" clip-rule="evenodd" d="M234.2 62.1917C234.2 63.5923 233.849 64.9111 233.232 66.0653C233.49 66.0408 233.752 66.0283 234.017 66.0283C238.557 66.0283 242.238 69.709 242.238 74.2494C242.238 78.7898 238.557 82.4706 234.017 82.4706C230.323 82.4706 227.198 80.0341 226.161 76.6805C225.125 80.0341 222 82.4706 218.306 82.4706C213.765 82.4706 210.084 78.7898 210.084 74.2494C210.084 69.709 213.765 66.0283 218.306 66.0283C218.441 66.0283 218.577 66.0316 218.711 66.0381C218.102 64.8904 217.757 63.5813 217.757 62.1917C217.757 57.6513 221.438 53.9706 225.979 53.9706C230.519 53.9706 234.2 57.6513 234.2 62.1917Z" fill="black"/>
</g>
<g filter="url(#filter1_d_1_775)">
<rect x="159" y="25" width="104" height="136" rx="10" fill="white" shape-rendering="crispEdges"/>
<rect x="215.941" y="114.912" width="24" height="24" rx="1" transform="rotate(-45 215.941 114.912)" fill="#F50032"/>
<path fill-rule="evenodd" clip-rule="evenodd" d="M202.598 112.857C203.509 114.108 204.046 115.648 204.046 117.314C204.046 121.501 200.652 124.895 196.465 124.895C193.058 124.895 190.176 122.648 189.22 119.556C188.264 122.648 185.383 124.895 181.976 124.895C177.789 124.895 174.395 121.501 174.395 117.314C174.395 115.649 174.932 114.109 175.842 112.858C176.067 112.51 176.318 112.178 176.594 111.863L188.468 98.3187C188.867 97.8643 189.574 97.8643 189.972 98.3187L201.847 111.863C202.123 112.178 202.373 112.51 202.598 112.857Z" fill="black"/>
<path d="M188.788 124.162C188.98 123.828 189.461 123.828 189.654 124.162L193.551 130.912C193.743 131.245 193.503 131.662 193.118 131.662H185.323C184.939 131.662 184.698 131.245 184.89 130.912L188.788 124.162Z" fill="black"/>
<path fill-rule="evenodd" clip-rule="evenodd" d="M204.561 69.3157C205.604 67.8814 206.22 66.1154 206.22 64.2056C206.22 59.4045 202.328 55.5124 197.527 55.5124C193.621 55.5124 190.317 58.0887 189.22 61.6349C188.124 58.0887 184.82 55.5124 180.914 55.5124C176.112 55.5124 172.22 59.4045 172.22 64.2056C172.22 66.1151 172.836 67.8809 173.88 69.3151C174.138 69.7136 174.425 70.0949 174.741 70.4556L188.468 86.1128C188.867 86.5672 189.574 86.5672 189.972 86.1128L203.699 70.4556C204.015 70.0951 204.303 69.714 204.561 69.3157Z" fill="#F50032"/>
<path d="M232.728 80.2206C232.921 79.8872 233.402 79.8872 233.594 80.2206L237.491 86.9706C237.684 87.3039 237.443 87.7206 237.058 87.7206H229.264C228.879 87.7206 228.639 87.3039 228.831 86.9706L232.728 80.2206Z" fill="black"/>
<path fill-rule="evenodd" clip-rule="evenodd" d="M241.2 62.1917C241.2 63.5923 240.849 64.9111 240.232 66.0653C240.49 66.0408 240.752 66.0283 241.017 66.0283C245.557 66.0283 249.238 69.709 249.238 74.2494C249.238 78.7898 245.557 82.4706 241.017 82.4706C237.323 82.4706 234.198 80.0341 233.161 76.6805C232.125 80.0341 229 82.4706 225.306 82.4706C220.765 82.4706 217.084 78.7898 217.084 74.2494C217.084 69.709 220.765 66.0283 225.306 66.0283C225.441 66.0283 225.577 66.0316 225.711 66.0381C225.102 64.8904 224.757 63.5813 224.757 62.1917C224.757 57.6513 228.438 53.9706 232.979 53.9706C237.519 53.9706 241.2 57.6513 241.2 62.1917Z" fill="black"/>
</g>
</g>
</g>
<defs>
<filter id="filter0_b_1_775" x="-89.5" y="-90" width="600" height="380" filterUnits="userSpaceOnUse" color-interpolation-filters="sRGB">
<feFlood flood-opacity="0" result="BackgroundImageFix"/>
<feGaussianBlur in="BackgroundImageFix" stdDeviation="45"/>
<feComposite in2="SourceAlpha" operator="in" result="effect1_backgroundBlur_1_775"/>
<feBlend mode="normal" in="SourceGraphic" in2="effect1_backgroundBlur_1_775" result="shape"/>
</filter>
<filter id="filter1_d_1_775" x="135" y="5" width="152" height="184" filterUnits="userSpaceOnUse" color-interpolation-filters="sRGB">
<feFlood flood-opacity="0" result="BackgroundImageFix"/>
<feColorMatrix in="SourceAlpha" type="matrix" values="0 0 0 0 0 0 0 0 0 0 0 0 0 0 0 0 0 0 127 0" result="hardAlpha"/>
<feOffset dy="4"/>
<feGaussianBlur stdDeviation="12"/>
<feComposite in2="hardAlpha" operator="out"/>
<feColorMatrix type="matrix" values="0 0 0 0 0 0 0 0 0 0 0 0 0 0 0 0 0 0 0.25 0"/>
<feBlend mode="normal" in2="BackgroundImageFix" result="effect1_dropShadow_1_775"/>
<feBlend mode="normal" in="SourceGraphic" in2="effect1_dropShadow_1_775" result="shape"/>
</filter>
<radialGradient id="paint0_radial_1_775" cx="0" cy="0" r="1" gradientUnits="userSpaceOnUse" gradientTransform="translate(210) rotate(90) scale(262.5 326.353)">
<stop stop-color="#14C57A"/>
<stop offset="1" stop-color="#097750"/>
</radialGradient>
<clipPath id="clip0_1_775">
<rect x="0.5" width="420" height="200" rx="10" fill="white"/>
</clipPath>
<clipPath id="clip1_1_775">
<rect width="420" height="262.5" fill="white" transform="translate(1 -63)"/>
</clipPath>
</defs>
</svg>
